<svg xmlns="http://www.w3.org/2000/svg" viewBox="0 0 1664 1664" width="1024" height="1024">
  <g transform="translate(428,183)">
    <path d="M 631.40 940.23 C627.06,948.33 623.28,954.96 623.00,954.96 C622.72,954.97 620.07,950.36 617.09,944.73 C598.81,910.12 572.02,881.22 531.30,852.17 C502.41,831.57 471.59,816.68 433.74,805.06 C415.75,799.54 371.19,789.87 348.40,786.53 C317.84,782.06 259.54,771.45 244.00,767.54 C177.05,750.66 137.50,729.74 98.48,690.58 C74.74,666.75 59.11,645.15 43.79,615.00 C18.49,565.21 5.17,512.11 2.00,448.51 C0.29,414.19 3.81,367.88 10.55,335.98 C13.37,322.58 21.66,292.03 25.33,281.50 C34.32,255.65 47.54,226.55 60.53,204.00 C124.97,92.18 234.05,18.37 354.50,5.10 C390.04,1.18 417.96,1.44 455.20,6.05 C558.88,18.88 658.22,74.88 722.11,156.50 C762.70,208.35 791.71,273.87 800.96,334.59 C812.45,409.94 804.62,495.63 777.40,592.50 C770.07,618.62 769.18,621.55 761.85,644.00 C733.39,731.16 686.79,836.97 631.40,940.23 ZM 393.00 643.36 C408.67,644.47 439.24,642.06 456.00,638.40 C516.18,625.23 570.75,588.10 604.96,537.04 C621.20,512.79 635.13,480.34 640.38,454.50 C649.88,407.82 646.13,359.36 629.72,316.99 C602.23,246.01 544.22,193.06 470.50,171.67 C448.68,165.34 434.72,163.58 406.00,163.54 C380.49,163.50 365.91,165.00 348.00,169.53 C260.44,191.66 193.71,258.65 171.54,346.66 C163.27,379.53 163.05,423.39 170.99,457.45 C178.89,491.32 196.57,527.37 218.67,554.65 C227.82,565.94 247.79,585.49 258.54,593.66 C285.47,614.13 317.23,629.31 350.01,637.36 C359.47,639.68 378.39,642.32 393.00,643.36 ZM 415.20 1282.25 C410.03,1289.26 405.50,1294.99 405.15,1294.97 C403.51,1294.90 358.71,1231.48 328.54,1186.50 C298.34,1141.49 263.05,1085.84 241.02,1048.50 C238.10,1043.55 233.81,1036.35 231.50,1032.50 C206.76,991.39 149.74,886.93 151.22,885.44 C151.46,885.20 161.55,887.02 173.64,889.47 C231.33,901.18 271.04,905.60 353.50,909.50 C411.02,912.22 441.03,915.83 466.50,923.09 C509.40,935.33 543.95,955.67 573.61,986.14 C582.03,994.79 593.00,1007.48 593.00,1008.57 C593.00,1009.71 568.33,1051.11 544.60,1089.80 C525.89,1120.32 492.25,1172.03 468.89,1206.19 C444.04,1242.53 433.99,1256.77 415.20,1282.25 ZM 359.34 497.00 C334.76,514.88 314.20,529.67 313.66,529.89 C313.12,530.10 312.92,529.65 313.20,528.89 C314.04,526.68 326.14,489.54 334.02,465.00 C337.99,452.62 342.73,437.91 344.54,432.30 L 347.82 422.09 L 338.66 415.24 C333.62,411.47 324.94,405.03 319.36,400.94 C313.78,396.85 297.31,384.73 282.76,374.00 L 256.30 354.50 L 313.02 354.24 L 369.73 353.98 L 383.95 310.74 C391.77,286.96 399.78,262.55 401.75,256.50 L 405.33 245.50 L 407.09 251.00 C412.49,267.90 439.31,349.85 440.06,351.74 L 440.95 353.98 L 554.50 354.50 L 538.50 366.23 C529.70,372.68 509.90,387.22 494.50,398.54 C479.10,409.85 465.67,419.72 464.66,420.47 C462.88,421.77 462.92,422.14 465.54,430.66 C468.56,440.43 476.59,465.19 489.33,504.00 C493.94,518.03 497.57,529.66 497.40,529.87 C497.08,530.26 486.41,522.62 437.13,486.75 C419.87,474.19 405.37,464.05 404.90,464.21 C404.43,464.37 383.93,479.12 359.34,497.00 Z" fill="#080203"/>
  </g>
</svg>
