<svg version="1.1" xmlns="http://www.w3.org/2000/svg" style="display: block;" viewBox="0 0 2432 1792" width="2432" height="1792" preserveAspectRatio="none" xmlns:c2pa="http://c2pa.org/manifest"><metadata><c2pa:manifest>AAAMZ2p1bWIAAAAeanVtZGMycGEAEQAQgAAAqgA4m3EDYzJwYQAAAAxBanVtYgAAAEdqdW1kYzJtYQARABCAAACqADibcQN1cm46YzJwYTphY2VjZGQ2OC01NTZkLTQ1Y2ItOWFkMy0xZGM1ZmQ3ZDZjYmEAAAAB4mp1bWIAAAApanVtZGMyYXMAEQAQgAAAqgA4m3EDYzJwYS5hc3NlcnRpb25zAAAAAO1qdW1iAAAAQWp1bWRjYm9yABEAEIAAAKoAOJtxE2MycGEuYWN0aW9ucy52MgAAAAAYYzJzaA0kaVFt8LFJL7zcMEtZr0AAAACkY2JvcqFnYWN0aW9uc4GjZmFjdGlvbmxjMnBhLmNyZWF0ZWRxZGlnaXRhbFNvdXJjZVR5cGV4Rmh0dHA6Ly9jdi5pcHRjLm9yZy9uZXdzY29kZXMvZGlnaXRhbHNvdXJjZXR5cGUvdHJhaW5lZEFsZ29yaXRobWljTWVkaWFrZGVzY3JpcHRpb252Q3JlYXRlZCBieSBSZWNyYWZ0IEFJLgAAAMRqdW1iAAAAQGp1bWRjYm9yABEAEIAAAKoAOJtxE2MycGEuaGFzaC5kYXRhAAAAABhjMnNomS48JWe/y1EzT2gCxstPIQAAAHxjYm9ypWpleGNsdXNpb25zgaJlc3RhcnQY22ZsZW5ndGgZEIxkbmFtZW5qdW1iZiBtYW5pZmVzdGNhbGdmc2hhMjU2ZGhhc2hYILMUGsqWrhBuMlQdRkBGY07P/BgLWfnWRXA0qyFOZdY/Y3BhZEkAAAAAAAAAAAAAAAI0anVtYgAAACdqdW1kYzJjbAARABCAAACqADibcQNjMnBhLmNsYWltLnYyAAAAAgVjYm9ypmppbnN0YW5jZUlEeCx4bXA6aWlkOmNiMDFiMjRhLWEzZmUtNDZmZS04YjQ3LTcxMGU2MWEwNmIyNHRjbGFpbV9nZW5lcmF0b3JfaW5mb6NkbmFtZWpyZWNyYWZ0LmFpZ3ZlcnNpb254KDgxY2U4MmUyYzVjM2NiZmJlOGM2ZmJlMTc5ZDVmOGQ5MWM0MDljZTF3b3JnLmNvbnRlbnRhdXRoLmMycGFfcnNmMC45MC43aXNpZ25hdHVyZXhNc2VsZiNqdW1iZj0vYzJwYS91cm46YzJwYTphY2VjZGQ2OC01NTZkLTQ1Y2ItOWFkMy0xZGM1ZmQ3ZDZjYmEvYzJwYS5zaWduYXR1cmVyY3JlYXRlZF9hc3NlcnRpb25zgqJjdXJseCpzZWxmI2p1bWJmPWMycGEuYXNzZXJ0aW9ucy9jMnBhLmFjdGlvbnMudjJkaGFzaFggsVc+z2zU6dy7SnImANn6aoIZeE79+TKXEVIgCHWmb5CiY3VybHgpc2VsZiNqdW1iZj1jMnBhLmFzc2VydGlvbnMvYzJwYS5oYXNoLmRhdGFkaGFzaFggV9pZCfIsT2lIgygqbosAwhwCwZDNXMF+OQZXucEkOXhoZGM6dGl0bGV4GlJlY3JhZnQgQUkgR2VuZXJhdGVkIEltYWdlY2FsZ2ZzaGEyNTYAAAfcanVtYgAAAChqdW1kYzJjcwARABCAAACqADibcQNjMnBhLnNpZ25hdHVyZQAAAAesY2JvctKEWQOwogEmGCGCWQHnMIIB4zCCAYmgAwIBAgIJALfeWmNDUW56MAoGCCqGSM49BAMCMEAxHzAdBgNVBAMMFlJlY3JhZnQgU3RhZ2luZyBEZXYgQ0ExEDAOBgNVBAoMB1JlY3JhZnQxCzAJBgNVBAYTAlVTMB4XDTI2MDYxMjE5NDM1MFoXDTI3MDYxMjE5NDM1MFowNzELMAkGA1UEBhMCVVMxEzARBgNVBAoTClJlY3JhZnQgQUkxEzARBgNVBAMTCnJlY3JhZnQuYWkwWTATBgcqhkjOPQIBBggqhkjOPQMBBwNCAARKaTVbACsg/DeG3LeOxYdID/VA6EFG73E6Oknb+KIiCFJygRUz4ueN2z/t2qYb6CIUvS8RvgOiiClfoqsYtw81o3UwczAMBgNVHRMBAf8EAjAAMA4GA1UdDwEB/wQEAwIGwDATBgNVHSUEDDAKBggrBgEFBQcDBDAdBgNVHQ4EFgQULzHpBen96SL1y4IPHa8MkMshXf0wHwYDVR0jBBgwFoAUAgsqOBrKqpdK//m/kxZo7ZR4ebcwCgYIKoZIzj0EAwIDSAAwRQIgU8hKW0aXvvk8SQgVFNkax69Ym9ae8GsT2RZTQw+B51ACIQC0D4BkEoRD4N0r2ZRkNy0HZaW3WICy/QZGN95ilF4yzFkBvTCCAbkwggFfoAMCAQICCQCc+Wg7T6ATbzAKBggqhkjOPQQDAjBAMR8wHQYDVQQDDBZSZWNyYWZ0IFN0YWdpbmcgRGV2IENBMRAwDgYDVQQKDAdSZWNyYWZ0MQswCQYDVQQGEwJVUzAeFw0yNjA2MTIxOTQwMTZaFw0yODA2MTExOTQwMTZaMEAxHzAdBgNVBAMMFlJlY3JhZnQgU3RhZ2luZyBEZXYgQ0ExEDAOBgNVBAoMB1JlY3JhZnQxCzAJBgNVBAYTAlVTMFkwEwYHKoZIzj0CAQYIKoZIzj0DAQcDQgAEQ9IQBlcVbKaKPYrQSfOhL/00s7xUDC7RinIuLO/I1k99y9yh6oWF9kPxaP+tx1v1PeOL3yrVquJ730H0ZGiDyqNCMEAwDwYDVR0TAQH/BAUwAwEB/zAOBgNVHQ8BAf8EBAMCAYYwHQYDVR0OBBYEFAILKjgayqqXSv/5v5MWaO2UeHm3MAoGCCqGSM49BAMCA0gAMEUCIFQwNImLlYDeQhjgF+ZiqTbgcuzSqmOJw3Q2lQ/hu83FAiEA9O8cLm/xfoVLqB4jtdbuHzi3WL+p2RN+DRGkwpYswVuhY3BhZFkDpAAAAAAAAAAAAAAAAAAAAAAAAAAAAAAAAAAAAAAAAAAAAAAAAAAAAAAAAAAAAAAAAAAAAAAAAAAAAAAAAAAAAAAAAAAAAAAAAAAAAAAAAAAAAAAAAAAAAAAAAAAAAAAAAAAAAAAAAAAAAAAAAAAAAAAAAAAAAAAAAAAAAAAAAAAAAAAAAAAAAAAAAAAAAAAAAAAAAAAAAAAAAAAAAAAAAAAAAAAAAAAAAAAAAAAAAAAAAAAAAAAAAAAAAAAAAAAAAAAAAAAAAAAAAAAAAAAAAAAAAAAAAAAAAAAAAAAAAAAAAAAAAAAAAAAAAAAAAAAAAAAAAAAAAAAAAAAAAAAAAAAAAAAAAAAAAAAAAAAAAAAAAAAAAAAAAAAAAAAAAAAAAAAAAAAAAAAAAAAAAAAAAAAAAAAAAAAAAAAAAAAAAAAAAAAAAAAAAAAAAAAAAAAAAAAAAAAAAAAAAAAAAAAAAAAAAAAAAAAAAAAAAAAAAAAAAAAAAAAAAAAAAAAAAAAAAAAAAAAAAAAAAAAAAAAAAAAAAAAAAAAAAAAAAAAAAAAAAAAAAAAAAAAAAAAAAAAAAAAAAAAAAAAAAAAAAAAAAAAAAAAAAAAAAAAAAAAAAAAAAAAAAAAAAAAAAAAAAAAAAAAAAAAAAAAAAAAAAAAAAAAAAAAAAAAAAAAAAAAAAAAAAAAAAAAAAAAAAAAAAAAAAAAAAAAAAAAAAAAAAAAAAAAAAAAAAAAAAAAAAAAAAAAAAAAAAAAAAAAAAAAAAAAAAAAAAAAAAAAAAAAAAAAAAAAAAAAAAAAAAAAAAAAAAAAAAAAAAAAAAAAAAAAAAAAAAAAAAAAAAAAAAAAAAAAAAAAAAAAAAAAAAAAAAAAAAAAAAAAAAAAAAAAAAAAAAAAAAAAAAAAAAAAAAAAAAAAAAAAAAAAAAAAAAAAAAAAAAAAAAAAAAAAAAAAAAAAAAAAAAAAAAAAAAAAAAAAAAAAAAAAAAAAAAAAAAAAAAAAAAAAAAAAAAAAAAAAAAAAAAAAAAAAAAAAAAAAAAAAAAAAAAAAAAAAAAAAAAAAAAAAAAAAAAAAAAAAAAAAAAAAAAAAAAAAAAAAAAAAAAAAAAAAAAAAAAAAAAAAAAAAAAAAAAAAAAAAAAAAAAAAAAAAAAAAAAAAAAAAAAAAAAAAAAAAAAAAAAAAAAAAAAAAAAAAAAAAAAAAAAAAAAAAAAAAAAAAAAAAAAAAAAAAAAAAAAAAAAAAAAAAA9lhAWjFdX9TsHVXvgBupgNyAGuIesrqJYcguJniwhmOF5Efg413/7B3aLFKazeR+t4bP/RuQUlWuUs8zcZ9zf2nHuw==</c2pa:manifest></metadata>
<path transform="translate(0,0)" fill="rgb(245,243,239)" d="M 0 0 L 2432 0 L 2432 1792 L 0 1792 L 0 0 z"/>
<path transform="translate(0,0)" fill="rgb(74,59,69)" d="M 1192.56 121.48 C 1200.7 121.138 1208.85 120.955 1216.99 120.932 C 1366.34 121.676 1509.33 181.462 1614.76 287.244 C 1685.65 358.386 1735.65 447.631 1759.3 545.243 C 1778.25 625.546 1774.24 700.195 1774.35 781.993 L 1774.37 1001.69 L 1774.29 1676.95 L 1617.55 1676.98 C 1616.22 1586.04 1617.15 1492.77 1617.2 1401.76 L 1617.18 939.389 L 1617.15 760.113 C 1617.17 703.458 1620.2 647.862 1608.78 592.405 C 1580.44 454.744 1476.71 341.07 1343.66 297.127 C 1308.46 285.502 1277.77 280.349 1240.62 277.384 C 1232.32 276.989 1224.01 276.788 1215.71 276.781 C 1109.22 276.575 1007 318.556 931.395 393.538 C 877.979 446.676 840.759 513.898 824.071 587.372 C 810.42 648.882 813.999 705.654 814.095 768.193 L 814.174 946.535 L 814.028 1676.89 L 658.461 1676.86 L 658.351 992.128 L 658.41 793.29 C 658.052 713.37 654.232 626.424 671.897 548.999 C 692.754 457.579 738.12 373.988 800.632 304.494 C 901.75 193.81 1042.79 127.954 1192.56 121.48 z"/>
<path transform="translate(0,0)" fill="rgb(74,59,69)" d="M 1195.95 443.502 C 1202.7 443.037 1209.97 442.933 1216.75 442.922 C 1307.46 443.492 1394.32 479.622 1458.67 543.55 C 1504.06 588.622 1535.74 645.631 1550.04 707.971 C 1560.84 753.532 1558.98 795.944 1558.95 842.364 L 1558.88 961.619 L 1558.92 1368.42 L 1462.96 1368.36 L 1462.91 949.13 L 1462.94 835.001 C 1462.95 804.779 1464.32 770.757 1458.96 741.3 C 1451.44 701.315 1434.22 663.787 1408.81 632.007 C 1364.43 576.809 1304.65 548.613 1235.24 541.122 C 1229.73 540.812 1224.2 540.619 1218.68 540.541 C 1152.3 539.765 1088.39 565.623 1041.22 612.334 C 1007.37 646.535 984.219 689.853 974.585 736.998 C 968.032 768.325 969.8 802.38 969.847 834.538 L 969.909 944.718 L 970.075 1368.54 L 873.158 1368.31 L 873.146 963.54 L 873.097 842.285 C 873.111 794.88 871.33 757.869 881.441 711.426 C 893.393 656.927 918.593 606.214 954.811 563.773 C 1016.53 490.369 1101.47 451.654 1195.95 443.502 z"/>
<path transform="translate(0,0)" fill="rgb(74,59,69)" d="M 1200.66 634.405 C 1203.45 633.97 1213.78 633.729 1216.97 633.759 C 1269.88 634.266 1321.19 655.24 1358.55 692.484 C 1385.61 719.633 1404.23 754.033 1412.17 791.532 C 1417.63 816.583 1416.38 840.075 1416.35 865.527 L 1416.23 936.879 L 1416.51 1180.78 L 1366.79 1180.46 L 1366.85 933.967 L 1366.9 865.296 C 1366.9 846.369 1367.57 826.748 1364.45 808.12 C 1360.62 785.471 1351.41 764.073 1337.58 745.732 C 1311.35 710.999 1275.88 693.163 1233.44 687.154 C 1188.02 682.968 1142.78 696.556 1110.03 729.079 C 1090.19 748.786 1076.37 773.731 1070.17 800.999 C 1065.13 823.735 1066.29 846.537 1066.35 869.652 L 1066.4 933.631 L 1066.52 1180.43 C 1050.24 1180.76 1033.18 1180.37 1016.85 1180.24 L 1016.79 929.413 L 1016.75 860.175 C 1016.75 837.376 1015.86 816.096 1020.25 793.549 C 1026.63 761.052 1041.17 730.71 1062.49 705.373 C 1097.51 663.484 1146.5 639.314 1200.66 634.405 z"/>
</svg>