<svg version="1.1" xmlns="http://www.w3.org/2000/svg" style="display: block;" viewBox="0 0 2688 1536" width="2688" height="1536" preserveAspectRatio="none" xmlns:c2pa="http://c2pa.org/manifest"><metadata><c2pa:manifest>AAAMZ2p1bWIAAAAeanVtZGMycGEAEQAQgAAAqgA4m3EDYzJwYQAAAAxBanVtYgAAAEdqdW1kYzJtYQARABCAAACqADibcQN1cm46YzJwYTphNDYwODUwZC04YzNhLTQwZmYtOGVhNC1kYmY5MjcyM2E1NTgAAAAB4mp1bWIAAAApanVtZGMyYXMAEQAQgAAAqgA4m3EDYzJwYS5hc3NlcnRpb25zAAAAAO1qdW1iAAAAQWp1bWRjYm9yABEAEIAAAKoAOJtxE2MycGEuYWN0aW9ucy52MgAAAAAYYzJzaHgBHe8uVgrOOnrkW+tB9V0AAACkY2JvcqFnYWN0aW9uc4GjZmFjdGlvbmxjMnBhLmNyZWF0ZWRxZGlnaXRhbFNvdXJjZVR5cGV4Rmh0dHA6Ly9jdi5pcHRjLm9yZy9uZXdzY29kZXMvZGlnaXRhbHNvdXJjZXR5cGUvdHJhaW5lZEFsZ29yaXRobWljTWVkaWFrZGVzY3JpcHRpb252Q3JlYXRlZCBieSBSZWNyYWZ0IEFJLgAAAMRqdW1iAAAAQGp1bWRjYm9yABEAEIAAAKoAOJtxE2MycGEuaGFzaC5kYXRhAAAAABhjMnNoGmFpW72Axkd+l6eyiUTpSAAAAHxjYm9ypWpleGNsdXNpb25zgaJlc3RhcnQY22ZsZW5ndGgZEIxkbmFtZW5qdW1iZiBtYW5pZmVzdGNhbGdmc2hhMjU2ZGhhc2hYIKKJwnD+jvwgevjgExevJIGXg+W2nMe1X7dWJJCdRdBMY3BhZEkAAAAAAAAAAAAAAAI0anVtYgAAACdqdW1kYzJjbAARABCAAACqADibcQNjMnBhLmNsYWltLnYyAAAAAgVjYm9ypmppbnN0YW5jZUlEeCx4bXA6aWlkOjhjZWUzM2JhLTVhMjYtNDlkNC1hZmU2LTVjMGVkMjY1YTE3ZHRjbGFpbV9nZW5lcmF0b3JfaW5mb6NkbmFtZWpyZWNyYWZ0LmFpZ3ZlcnNpb254KDgxY2U4MmUyYzVjM2NiZmJlOGM2ZmJlMTc5ZDVmOGQ5MWM0MDljZTF3b3JnLmNvbnRlbnRhdXRoLmMycGFfcnNmMC45MC43aXNpZ25hdHVyZXhNc2VsZiNqdW1iZj0vYzJwYS91cm46YzJwYTphNDYwODUwZC04YzNhLTQwZmYtOGVhNC1kYmY5MjcyM2E1NTgvYzJwYS5zaWduYXR1cmVyY3JlYXRlZF9hc3NlcnRpb25zgqJjdXJseCpzZWxmI2p1bWJmPWMycGEuYXNzZXJ0aW9ucy9jMnBhLmFjdGlvbnMudjJkaGFzaFgg184AZuWYjAWVhLl1ngeZnRpfF9BH+EkV0kRhaICDwrqiY3VybHgpc2VsZiNqdW1iZj1jMnBhLmFzc2VydGlvbnMvYzJwYS5oYXNoLmRhdGFkaGFzaFggW3P/V2W7I1NgfnakOrosReNID9DGxB7r4A0fjHM6tFpoZGM6dGl0bGV4GlJlY3JhZnQgQUkgR2VuZXJhdGVkIEltYWdlY2FsZ2ZzaGEyNTYAAAfcanVtYgAAAChqdW1kYzJjcwARABCAAACqADibcQNjMnBhLnNpZ25hdHVyZQAAAAesY2JvctKEWQOwogEmGCGCWQHnMIIB4zCCAYmgAwIBAgIJALfeWmNDUW56MAoGCCqGSM49BAMCMEAxHzAdBgNVBAMMFlJlY3JhZnQgU3RhZ2luZyBEZXYgQ0ExEDAOBgNVBAoMB1JlY3JhZnQxCzAJBgNVBAYTAlVTMB4XDTI2MDYxMjE5NDM1MFoXDTI3MDYxMjE5NDM1MFowNzELMAkGA1UEBhMCVVMxEzARBgNVBAoTClJlY3JhZnQgQUkxEzARBgNVBAMTCnJlY3JhZnQuYWkwWTATBgcqhkjOPQIBBggqhkjOPQMBBwNCAARKaTVbACsg/DeG3LeOxYdID/VA6EFG73E6Oknb+KIiCFJygRUz4ueN2z/t2qYb6CIUvS8RvgOiiClfoqsYtw81o3UwczAMBgNVHRMBAf8EAjAAMA4GA1UdDwEB/wQEAwIGwDATBgNVHSUEDDAKBggrBgEFBQcDBDAdBgNVHQ4EFgQULzHpBen96SL1y4IPHa8MkMshXf0wHwYDVR0jBBgwFoAUAgsqOBrKqpdK//m/kxZo7ZR4ebcwCgYIKoZIzj0EAwIDSAAwRQIgU8hKW0aXvvk8SQgVFNkax69Ym9ae8GsT2RZTQw+B51ACIQC0D4BkEoRD4N0r2ZRkNy0HZaW3WICy/QZGN95ilF4yzFkBvTCCAbkwggFfoAMCAQICCQCc+Wg7T6ATbzAKBggqhkjOPQQDAjBAMR8wHQYDVQQDDBZSZWNyYWZ0IFN0YWdpbmcgRGV2IENBMRAwDgYDVQQKDAdSZWNyYWZ0MQswCQYDVQQGEwJVUzAeFw0yNjA2MTIxOTQwMTZaFw0yODA2MTExOTQwMTZaMEAxHzAdBgNVBAMMFlJlY3JhZnQgU3RhZ2luZyBEZXYgQ0ExEDAOBgNVBAoMB1JlY3JhZnQxCzAJBgNVBAYTAlVTMFkwEwYHKoZIzj0CAQYIKoZIzj0DAQcDQgAEQ9IQBlcVbKaKPYrQSfOhL/00s7xUDC7RinIuLO/I1k99y9yh6oWF9kPxaP+tx1v1PeOL3yrVquJ730H0ZGiDyqNCMEAwDwYDVR0TAQH/BAUwAwEB/zAOBgNVHQ8BAf8EBAMCAYYwHQYDVR0OBBYEFAILKjgayqqXSv/5v5MWaO2UeHm3MAoGCCqGSM49BAMCA0gAMEUCIFQwNImLlYDeQhjgF+ZiqTbgcuzSqmOJw3Q2lQ/hu83FAiEA9O8cLm/xfoVLqB4jtdbuHzi3WL+p2RN+DRGkwpYswVuhY3BhZFkDpAAAAAAAAAAAAAAAAAAAAAAAAAAAAAAAAAAAAAAAAAAAAAAAAAAAAAAAAAAAAAAAAAAAAAAAAAAAAAAAAAAAAAAAAAAAAAAAAAAAAAAAAAAAAAAAAAAAAAAAAAAAAAAAAAAAAAAAAAAAAAAAAAAAAAAAAAAAAAAAAAAAAAAAAAAAAAAAAAAAAAAAAAAAAAAAAAAAAAAAAAAAAAAAAAAAAAAAAAAAAAAAAAAAAAAAAAAAAAAAAAAAAAAAAAAAAAAAAAAAAAAAAAAAAAAAAAAAAAAAAAAAAAAAAAAAAAAAAAAAAAAAAAAAAAAAAAAAAAAAAAAAAAAAAAAAAAAAAAAAAAAAAAAAAAAAAAAAAAAAAAAAAAAAAAAAAAAAAAAAAAAAAAAAAAAAAAAAAAAAAAAAAAAAAAAAAAAAAAAAAAAAAAAAAAAAAAAAAAAAAAAAAAAAAAAAAAAAAAAAAAAAAAAAAAAAAAAAAAAAAAAAAAAAAAAAAAAAAAAAAAAAAAAAAAAAAAAAAAAAAAAAAAAAAAAAAAAAAAAAAAAAAAAAAAAAAAAAAAAAAAAAAAAAAAAAAAAAAAAAAAAAAAAAAAAAAAAAAAAAAAAAAAAAAAAAAAAAAAAAAAAAAAAAAAAAAAAAAAAAAAAAAAAAAAAAAAAAAAAAAAAAAAAAAAAAAAAAAAAAAAAAAAAAAAAAAAAAAAAAAAAAAAAAAAAAAAAAAAAAAAAAAAAAAAAAAAAAAAAAAAAAAAAAAAAAAAAAAAAAAAAAAAAAAAAAAAAAAAAAAAAAAAAAAAAAAAAAAAAAAAAAAAAAAAAAAAAAAAAAAAAAAAAAAAAAAAAAAAAAAAAAAAAAAAAAAAAAAAAAAAAAAAAAAAAAAAAAAAAAAAAAAAAAAAAAAAAAAAAAAAAAAAAAAAAAAAAAAAAAAAAAAAAAAAAAAAAAAAAAAAAAAAAAAAAAAAAAAAAAAAAAAAAAAAAAAAAAAAAAAAAAAAAAAAAAAAAAAAAAAAAAAAAAAAAAAAAAAAAAAAAAAAAAAAAAAAAAAAAAAAAAAAAAAAAAAAAAAAAAAAAAAAAAAAAAAAAAAAAAAAAAAAAAAAAAAAAAAAAAAAAAAAAAAAAAAAAAAAAAAAAAAAAAAAAAAAAAAAAAAAAAAAAAAAAAAAAAAAAAAAAAAAAAAAAAAAAAAAAAAAAAAAAAAAAAAAAAAAAAAAAAAAAAAAAAAAAAAAAAAAAAAAAAAAAAAAAAAAAAAAAA9lhA8dgxfR3QHOl1giOugF9HASg8WO1cOzibEx0e1IfiFx2ZpVxfx8yit6Ly7dMIuZAXMGFDf62G95yZmXDylEthrA==</c2pa:manifest></metadata>
<path transform="translate(0,0)" fill="rgb(243,236,224)" d="M 0 0 L 2688 0 L 2688 1536 L 0 1536 L 0 0 z"/>
<path transform="translate(0,0)" fill="rgb(6,5,6)" d="M 1673.12 330.684 C 1669.1 333.098 1662.09 336.158 1657.77 334.268 C 1636.08 324.779 1658.7 286.197 1677.28 314.59 C 1747.89 336.925 1753.52 344.74 1751.89 419.059 C 1761.38 436.537 1759.9 437.738 1775.63 447.956 C 1773.77 453.104 1774.63 454.211 1777.69 459.142 L 1779.39 459.473 C 1781.09 456.383 1780.41 453.18 1780.21 449.49 C 1782.2 449.625 1793.75 449.81 1791.19 455.925 C 1787.83 463.945 1778.46 462.915 1785.02 473.376 C 1789.98 487.685 1817.37 515.974 1815.64 527.961 C 1813.51 530.917 1814.91 529.947 1811.18 530.78 C 1793.89 526.52 1785.36 480.936 1775.15 476.989 C 1767.03 485.685 1771.1 658.826 1772.18 684.138 C 1772.86 700.272 1770.28 723.542 1770.88 739.776 C 1778.11 748.47 1778.55 757.296 1780.56 768.484 C 1794.59 777.953 1808.91 787.27 1824.6 793.767 C 1825.77 794.255 1826.73 795.777 1827.63 796.635 C 1828.08 797.101 1828.53 797.568 1828.99 798.034 C 1846.89 797.779 1904.03 796.262 1918.59 800.043 C 1930.89 803.317 1942.12 809.75 1951.17 818.705 C 1968.22 835.491 1969.47 848.323 1973.67 870.378 C 1995.54 985.3 2041.37 1101.04 2118.39 1190.27 C 2121.09 1193.4 2125.92 1199.46 2130.21 1199.03 C 2139.14 1198.24 2146.8 1196.74 2155.74 1198.46 C 2182.41 1203.54 2210 1207.1 2235.3 1217.51 C 2235.98 1217.78 2252.11 1228.1 2251.78 1227.72 C 2293.99 1277.42 2182.1 1291.04 2153.66 1289.89 C 2133.96 1289.09 2087.25 1288.16 2073.12 1276.61 C 2063.12 1272.14 2053.2 1264.51 2043.43 1258.76 L 2042.7 1258.32 C 2014.69 1271.7 1985.08 1281.45 1954.6 1287.34 C 1860.32 1305.94 1763.61 1296.36 1682.55 1242.16 C 1615.4 1281.69 1541.66 1313.11 1465.45 1330.01 C 1320.32 1362.21 1204.4 1334.11 1081.29 1255.39 C 1061.87 1267.89 1021.29 1286.56 998.609 1288.28 C 896.836 1313.01 799.117 1299.78 707.304 1249.23 C 694.657 1263.53 684.509 1272.6 670.509 1285.26 C 662.795 1287.5 647.841 1290.52 639.437 1291.69 C 592.802 1298.18 529.904 1297.56 489.595 1269.96 C 484.099 1266.38 475.294 1256.13 475.656 1249.28 C 478.112 1202.77 581.624 1200.35 608.234 1197.64 C 658.891 1142.04 698.755 1062.78 724.531 992.461 C 735.99 960.98 745.495 928.822 752.991 896.17 C 757.258 877.299 759.374 850.173 768.176 833.761 C 791.13 790.961 835.164 797.604 875.895 797.848 C 882.258 790.764 891.057 790.704 899.844 786.727 C 914.141 780.256 928.255 773.565 942.415 766.809 C 945.132 756.623 945.629 750.295 952.67 742.472 L 952.721 714.227 C 908.499 661.972 948.774 639.138 952.1 583.483 C 953.534 559.479 944.676 526.404 941.998 500.703 C 932.238 512.952 924.426 525.874 914.858 538.118 C 911.348 542.608 905.687 547.961 900.489 543.256 C 896.54 529.933 932.445 503.726 938.299 491.877 C 945.318 477.668 940.067 468.276 957.768 465.346 C 960.79 464.845 975.967 444.886 978.17 439.848 C 986.127 421.648 982.541 392.555 999.021 378.33 C 1011.38 371.273 1035.15 364.758 1048.41 360.648 C 1051.85 354.369 1057.37 348.916 1064.49 350.761 C 1086.83 356.547 1079.54 386.287 1054.39 379.075 C 1048.93 377.508 1034.51 380.169 1029.19 383.876 C 1038.11 399.983 1022.42 398.285 1017.51 405.048 C 1000.07 429.11 976.066 454.688 960.888 479.764 C 972.008 487.019 971.57 493.996 963.802 503.741 L 962.093 720.494 C 985.981 749.823 966.099 748.977 973.823 770.225 C 979.887 773.74 986.297 776.897 992.55 780.085 L 992.737 702.532 C 992.725 687.749 992.317 672.272 993.086 657.514 C 993.442 650.681 997.222 648.008 1002.15 643.942 C 1015.43 642.834 1032.57 643.125 1046.17 642.996 C 1063.32 627.02 1086.87 627.664 1104.14 643.122 C 1110.07 643.162 1116.63 642.608 1122.45 642.996 C 1142.17 644.31 1160.96 636.597 1160.63 663.928 C 1160.13 705.354 1162.06 746.96 1159.4 788.122 C 1159.14 792.012 1151.48 796.104 1148.45 797.737 L 1166.01 797.704 C 1167.26 795.45 1173.36 784.78 1173.12 782.745 C 1171.4 767.672 1171.66 752.88 1171.9 737.692 L 1175.17 588.207 C 1163.28 586.633 1155.03 584.411 1145.2 577.143 C 1132.86 567.949 1124.64 554.256 1122.34 539.04 C 1119.87 522.288 1124.27 508.551 1134.22 495.233 C 1123.27 488.346 1106.53 476.34 1103.48 463.384 C 1101.56 455.262 1103.77 446.798 1108.35 439.555 C 1121.49 418.778 1150.44 399.204 1172.53 388.906 C 1176.34 387.13 1199.15 381.622 1204.23 380.329 L 1213.13 364.543 C 1210.28 307.464 1274.09 312.469 1257.82 348.548 C 1252.3 360.884 1242.08 370.501 1229.44 375.255 L 1223.94 384.997 C 1266.09 411.701 1262.6 411.141 1284.46 456.01 C 1295.63 449.144 1307.46 441.581 1318.98 435.471 C 1320.71 429.359 1322.17 417.547 1329.93 418.423 C 1332.28 421.046 1332.81 421.973 1334.66 425.021 C 1342.01 425.425 1355.59 408.693 1360.72 403.816 C 1361.72 402.859 1369.96 398.619 1371.66 397.743 C 1372.18 397.37 1372.69 396.996 1373.21 396.623 L 1380.72 390.438 C 1396.72 380.86 1407.32 402.037 1399.48 413.051 L 1395.04 415.202 L 1389.09 418.422 C 1388.09 418.761 1387.44 419.078 1386.49 419.516 L 1381.13 422.925 L 1376.19 425.743 C 1370.91 428.248 1367.55 428.171 1361.8 426.933 C 1344.49 437.348 1330.9 444.533 1322.7 464.776 C 1316.46 480.168 1310.44 517.345 1286.88 513.668 C 1284.28 513.238 1280.93 509.84 1277.75 509.775 C 1274.25 520.084 1275.38 521.103 1269.06 530.572 C 1277.3 618.612 1274.28 692.005 1273.9 779.268 C 1283.69 784.967 1296.01 791.728 1305.32 797.787 L 1361.4 797.863 C 1364.77 789.747 1374.54 782.555 1381.15 776.392 C 1393.6 764.812 1405.99 753.162 1418.31 741.444 C 1418.3 733.782 1417.2 734.037 1423.55 728.957 C 1424.56 713.808 1424.34 697.611 1424.17 682.343 C 1423.54 624.973 1424.77 567.373 1424.14 510.033 C 1414.96 516.163 1376.53 543.839 1369.03 542.538 L 1368.5 541.876 C 1369.08 538.573 1370.01 536.958 1372.75 534.928 C 1386.91 524.419 1403.28 516.482 1417.01 505.482 C 1422.93 500.743 1417.86 494.025 1429.17 494.009 C 1436.53 493.998 1474.02 466.624 1482.35 461.069 C 1485.36 455.699 1484.03 449.049 1491.26 447.351 C 1496.06 446.222 1501.88 450.03 1502.47 454.944 C 1502.81 457.747 1502.01 460.571 1500.26 462.787 C 1498.98 464.402 1496.92 465.881 1494.81 466.098 C 1494.41 466.14 1493.99 466.102 1493.59 466.107 C 1484.25 466.223 1451.75 490.097 1442.62 496.518 C 1451.06 497.597 1447.44 497.117 1453.22 500.356 C 1465.89 507.453 1493.08 514.063 1507.36 517.753 C 1518.63 510.335 1529.37 507.843 1542.61 505.398 C 1551.81 477.968 1558.53 446.254 1585.61 432.593 C 1590.68 430.041 1595.92 427.854 1601.29 426.048 L 1597.98 413.284 C 1587.1 405.134 1577.34 383.883 1586.22 371.753 C 1589.16 367.778 1593.67 365.257 1598.6 364.831 C 1618.07 363.062 1621.39 388.519 1620.08 402.355 C 1619.47 408.834 1621.69 416.317 1623.31 422.622 C 1655.58 427.502 1676.09 439.918 1695.42 467.106 C 1729 514.343 1713.58 531.237 1662.7 539.119 C 1663.03 544.971 1664.55 564.3 1663.3 568.834 L 1660.21 569.899 C 1659.57 573.388 1662.37 607.478 1662.72 613.525 C 1663.65 630.781 1664.04 648.062 1663.88 665.343 C 1663.8 683.846 1663.06 702.34 1661.66 720.79 C 1659.95 742.66 1653.09 778.092 1657.31 797.84 L 1673.47 797.833 C 1679.82 789.257 1686.25 791.496 1696.14 787.124 C 1714.65 778.934 1733.28 770.877 1751.67 762.379 C 1753.57 749.947 1760.17 728.271 1760.93 718.356 C 1762.19 701.886 1763.27 666.538 1760.19 650.799 C 1755.52 626.956 1745.86 605.367 1745.2 579.504 C 1744.53 553.529 1750.43 534.217 1756.67 509.43 C 1761.43 487.842 1752.88 452.264 1747.41 430.604 C 1746.55 427.229 1731.06 400.827 1728.12 396.13 C 1720.25 383.538 1711.48 366.694 1703.4 354.538 C 1683.05 348.909 1702.32 338.808 1684.42 333.851 C 1680.66 332.812 1676.88 331.693 1673.12 330.684 z"/>
<path transform="translate(0,0)" fill="rgb(201,160,89)" d="M 1067.25 1245.44 C 1072.1 1248.66 1076.6 1251.96 1081.29 1255.39 C 1061.87 1267.89 1021.29 1286.56 998.609 1288.28 C 1016.61 1280.88 1030.51 1277.73 1050.97 1268.59 C 1056.57 1261 1062 1253.28 1067.25 1245.44 z"/>
<path transform="translate(0,0)" fill="rgb(201,160,89)" d="M 2042.7 1258.32 C 2045.37 1257.13 2047.69 1256.05 2050.3 1254.71 C 2057.76 1262.18 2066.08 1269.41 2073.12 1276.61 C 2063.12 1272.14 2053.2 1264.51 2043.43 1258.76 L 2042.7 1258.32 z"/>
<path transform="translate(0,0)" fill="rgb(201,160,89)" d="M 1691.49 800.964 L 1767.84 800.988 C 1781.45 800.895 1795.9 800.38 1809.37 801.301 C 1812.89 801.542 1816.22 812.507 1825.68 806.937 C 1827.02 804.684 1827.71 802.953 1829.93 801.632 C 1840.26 800.324 1907.12 800.025 1915.03 802.502 C 1921.42 803.751 1924.41 804.931 1930.38 807.737 C 1965.83 828.212 1965.89 846.461 1972.72 882.821 C 1975.23 895.922 1978.18 908.933 1981.57 921.833 C 2006.46 1017.21 2052.22 1122.45 2118.89 1195.77 C 2124.98 1202.23 2131.2 1208.58 2137.53 1214.8 C 2145.73 1222.77 2183.69 1251.26 2192.89 1251.12 L 2193.63 1249.67 C 2190.77 1246.63 2183.28 1243.62 2179.34 1241.44 C 2161.1 1231.33 2145.86 1217.77 2130.46 1203.84 C 2167.07 1204.45 2229.84 1207.41 2255.62 1238.55 C 2264.5 1249.28 2254.5 1261.02 2244.5 1266.53 C 2199.11 1291.54 2140 1289.82 2090.45 1280.44 C 2073.06 1277.16 2066.21 1264.98 2053.96 1253.46 C 1996.66 1192.66 1959.16 1112.13 1935.61 1033.02 C 1931.45 1018.82 1927.69 1004.5 1924.32 990.089 C 1923.18 985.221 1916.51 950.344 1915.02 948.023 L 1913.84 948.442 L 1913.15 950.973 C 1935.74 1065.01 1970.53 1162.93 2047.95 1252.33 L 2027.51 1261.58 C 1932.39 1303.55 1801.2 1304.77 1709.18 1254.5 C 1682.61 1239.99 1679.98 1236.67 1666.5 1209.21 C 1639.67 1154.56 1621.17 1096.67 1608.38 1037.25 C 1606.93 1030.53 1602.21 999.068 1599.33 996.146 L 1598.04 997.665 L 1598.32 1000.47 C 1607.18 1064.96 1643.86 1187.9 1680.14 1239.88 C 1677.69 1241.31 1667.08 1247.71 1665.1 1248.49 C 1581.12 1294.97 1469.58 1335.02 1374.28 1339.41 C 1362.3 1339.97 1340.85 1340.56 1329.03 1339.06 C 1242.12 1337.04 1149.55 1297.7 1078.58 1249.35 C 1074.55 1247.45 1072.13 1245.27 1068.71 1242.51 C 1110.14 1170.44 1143.91 1076.1 1155.43 993.302 C 1156.25 988.881 1157.28 985.433 1155.86 981.138 L 1154.89 980.433 C 1153 985.455 1150.86 1001.89 1149.69 1008.47 C 1147.2 1022.05 1144.29 1035.56 1140.99 1048.97 C 1123.24 1122.23 1092.86 1204.84 1048.9 1266.29 C 1031.76 1273.24 1017.82 1279.12 999.92 1284.14 C 917.583 1306.56 830.074 1300.37 751.711 1266.59 C 737.032 1260.4 724.301 1254.17 710.086 1247.37 C 710.81 1243.87 739.055 1204.43 742.892 1198.27 C 769.869 1154.95 789.606 1109.02 805.574 1060.74 C 811.023 1041.73 832.799 966.802 829.488 951.759 C 826.777 953.383 818.365 1005.97 815.299 1014.21 C 812.39 1030.44 804.07 1055.96 798.608 1071.71 C 773.185 1145.02 731.728 1227.55 672.418 1279.36 C 670.908 1280.33 668.651 1281.86 667.151 1282.67 C 628.654 1297.34 521.271 1295.85 489.582 1265.95 C 488.898 1265.4 488.236 1264.82 487.597 1264.22 C 456.134 1234.24 515.32 1213.31 537.105 1209.35 C 557.804 1205.58 582.093 1201.46 603.04 1201.86 L 603.45 1202.77 L 598.951 1207.06 C 584.491 1220.4 569.528 1233.38 551.894 1242.37 C 547.593 1244.57 543.29 1246.39 539.264 1249.11 L 539.929 1250.63 C 552.788 1252.5 596.352 1214.13 606.033 1204.8 C 671.371 1136.72 721.105 1024.77 746.516 934.725 C 749.698 920.474 754.133 905.896 757.496 891.405 C 763.973 863.501 762.097 841.911 783.4 819.938 C 807.444 795.138 842.94 800.793 875.961 800.957 C 881.871 810.979 887.987 810.277 894.38 801.086 L 1010.85 800.969 C 1014.29 805.854 1016.29 809.129 1023.1 808.221 C 1026.62 807.75 1028.24 801.457 1030.07 801.346 C 1039.26 800.791 1056.28 800.911 1065.03 800.897 L 1177.58 801.021 L 1650.12 800.987 C 1655.45 800.961 1672.22 799.457 1675.95 803.835 C 1678.82 807.203 1679.95 807.766 1683.92 807.586 C 1688 805.53 1688.66 804.448 1691.49 800.964 z"/>
<path transform="translate(0,0)" fill="rgb(159,114,47)" d="M 1913.15 950.973 C 1935.74 1065.01 1970.53 1162.93 2047.95 1252.33 L 2027.51 1261.58 C 1963.98 1185.14 1919.28 1055.56 1908.97 956.394 C 1908.83 954.966 1911.74 953.962 1913.15 950.973 z"/>
<path transform="translate(0,0)" fill="rgb(159,114,47)" d="M 1155.43 993.302 C 1157.46 997.299 1160.36 998.105 1164.71 1000.6 C 1153.06 1073.29 1138.02 1142.08 1105.52 1208.9 C 1099.34 1221.6 1091.11 1238.5 1083.4 1250.26 L 1078.58 1249.35 C 1074.55 1247.45 1072.13 1245.27 1068.71 1242.51 C 1110.14 1170.44 1143.91 1076.1 1155.43 993.302 z"/>
<path transform="translate(0,0)" fill="rgb(159,114,47)" d="M 1598.32 1000.47 C 1607.18 1064.96 1643.86 1187.9 1680.14 1239.88 C 1677.69 1241.31 1667.08 1247.71 1665.1 1248.49 C 1629.87 1193.52 1607.11 1108.51 1599.02 1043.84 C 1597.47 1031.49 1595.88 1012.45 1598.32 1000.47 z"/>
<path transform="translate(0,0)" fill="rgb(243,236,224)" d="M 1915.03 802.502 C 1921.42 803.751 1924.41 804.931 1930.38 807.737 C 1965.83 828.212 1965.89 846.461 1972.72 882.821 C 1975.23 895.922 1978.18 908.933 1981.57 921.833 C 2006.46 1017.21 2052.22 1122.45 2118.89 1195.77 C 2117.12 1195.78 2114.83 1196.23 2113.29 1195.07 C 2106.86 1190.22 2101.97 1183.76 2096.84 1177.52 C 2021.82 1086.42 1980.16 971.945 1962.76 856.193 C 1960 837.873 1944.64 819.366 1929.07 809.925 C 1924.3 807.495 1919.68 805.171 1915.03 802.502 z"/>
<path transform="translate(0,0)" fill="rgb(243,236,224)" d="M 670.806 1276.92 C 686.197 1261.64 705.276 1236.39 717.862 1218.61 C 764.201 1153.13 790.979 1089.95 814.428 1013.98 L 815.299 1014.21 C 812.39 1030.44 804.07 1055.96 798.608 1071.71 C 773.185 1145.02 731.728 1227.55 672.418 1279.36 C 670.908 1280.33 668.651 1281.86 667.151 1282.67 C 667.986 1279.18 668.061 1279.97 670.806 1276.92 z"/>
<path transform="translate(0,0)" fill="rgb(243,236,224)" d="M 746.516 934.725 C 747.096 943.489 738.384 968.153 735.568 977.256 C 711.006 1056.66 674.174 1134.05 620.487 1198.02 C 616.516 1202.75 612.475 1207.47 606.033 1204.8 C 671.371 1136.72 721.105 1024.77 746.516 934.725 z"/>
<path transform="translate(0,0)" fill="rgb(243,236,224)" d="M 1078.58 1249.35 L 1083.4 1250.26 C 1089.59 1255.59 1117.51 1270.92 1125.44 1275.07 C 1172.71 1300.06 1223.19 1318.4 1275.46 1329.6 C 1293.51 1333.45 1312.17 1335.4 1329.03 1339.06 C 1242.12 1337.04 1149.55 1297.7 1078.58 1249.35 z"/>
<path transform="translate(0,0)" fill="rgb(243,236,224)" d="M 489.582 1265.95 C 488.898 1265.4 488.236 1264.82 487.597 1264.22 C 456.134 1234.24 515.32 1213.31 537.105 1209.35 C 557.804 1205.58 582.093 1201.46 603.04 1201.86 L 603.45 1202.77 L 598.951 1207.06 C 568.653 1207.19 467.59 1216.64 489.582 1265.95 z"/>
<path transform="translate(0,0)" fill="rgb(243,236,224)" d="M 805.574 1060.74 C 806.425 1066.78 800.188 1082.43 797.98 1088.55 C 779.164 1141.96 752.497 1192.28 718.856 1237.83 C 716.516 1240.94 713.395 1245.84 710.086 1247.37 C 710.81 1243.87 739.055 1204.43 742.892 1198.27 C 769.869 1154.95 789.606 1109.02 805.574 1060.74 z"/>
<path transform="translate(0,0)" fill="rgb(243,236,224)" d="M 1026.4 646.41 C 1054.37 646.156 1082.34 646.102 1110.31 646.246 C 1122.62 646.275 1135.51 645.817 1147.73 646.995 C 1154.72 647.79 1157.59 653.717 1157.55 660.342 C 1157.31 702.241 1158.49 744.467 1156.71 786.286 C 1156.57 789.603 1151.2 792.84 1148.53 794.489 C 1122.89 794.701 1097.25 794.734 1071.61 794.589 C 1062.34 794.577 1025.97 796.402 1019.76 790.33 C 1018.59 787.172 1017.37 781.954 1017.4 777.812 C 1017.71 737.031 1015.87 694.816 1018.07 654.232 C 1018.26 650.816 1023.76 647.844 1026.4 646.41 z"/>
<path transform="translate(0,0)" fill="rgb(6,5,6)" d="M 1034.23 689.384 L 1034.84 689.364 C 1064.57 688.598 1094.69 689.467 1124.47 689.034 C 1135.7 688.871 1148.44 687.963 1148.05 702.421 C 1147.41 725.594 1148.34 748.866 1147.96 771.986 C 1147.86 777.572 1145.71 779.769 1141.59 782.995 L 1073.45 783.258 C 1063.7 783.276 1036.42 785.23 1029.65 778.951 C 1025.7 768.689 1028.04 740.299 1028.04 728.18 C 1028.03 716.363 1023.68 695.876 1034.23 689.384 z"/>
<path transform="translate(0,0)" fill="rgb(243,236,224)" d="M 1046.98 692.491 C 1058.82 692.435 1137.4 690.713 1142.48 694.397 C 1145.07 701.72 1145 710.563 1144.86 718.313 C 1144.5 737.281 1145.81 756.528 1144.32 775.407 C 1144.32 775.407 1142.44 777.936 1142.26 778.18 C 1138.55 780.377 1135.65 779.858 1131.25 779.788 C 1118.64 779.798 1039.71 782.201 1033.65 778.023 C 1032.16 777.002 1031.75 774.805 1031.4 773.108 C 1030.1 766.83 1030.32 710.962 1031.11 702.219 C 1031.39 699.116 1031.77 696.411 1033.56 693.775 C 1037.4 691.985 1042.54 692.492 1046.98 692.491 z"/>
<path transform="translate(0,0)" fill="rgb(6,5,6)" d="M 1027.84 672.415 C 1045.61 670.849 1073.24 672.918 1092.38 672.219 C 1107.48 671.668 1127.91 672.159 1143.23 672.62 C 1144.38 672.654 1144.45 673.44 1145.51 674.892 C 1135.38 676.308 1033.74 676.045 1028.68 674.622 L 1027.84 672.415 z"/>
<path transform="translate(0,0)" fill="rgb(6,5,6)" d="M 1058.11 657.958 C 1062.92 657.897 1069.26 657.087 1068.55 663.994 L 1068.43 665.517 C 1061 666.981 1056.61 666.89 1058.11 657.958 z"/>
<path transform="translate(0,0)" fill="rgb(6,5,6)" d="M 1089.79 657.745 C 1096.07 657.777 1101.64 657.203 1100.52 665.279 C 1092.34 666.699 1089.22 666.684 1089.79 657.745 z"/>
<path transform="translate(0,0)" fill="rgb(6,5,6)" d="M 1027.12 657.765 C 1033.26 658 1039.97 657.599 1036.61 665.811 C 1031.24 666.06 1024.87 666.792 1026.84 658.933 L 1027.12 657.765 z"/>
<path transform="translate(0,0)" fill="rgb(6,5,6)" d="M 1042.95 657.7 C 1049.7 657.874 1054 657.902 1051.93 666.212 C 1045.09 665.965 1040.01 666.165 1042.95 657.7 z"/>
<path transform="translate(0,0)" fill="rgb(6,5,6)" d="M 1074.94 657.747 C 1080.79 657.987 1087.16 658.057 1083.65 665.953 C 1076.73 666.183 1072.24 666.151 1074.94 657.747 z"/>
<path transform="translate(0,0)" fill="rgb(6,5,6)" d="M 1107 657.773 C 1114.13 658.253 1118.64 657.96 1115.33 666.029 C 1108.59 665.851 1104.17 665.812 1107 657.773 z"/>
<path transform="translate(0,0)" fill="rgb(6,5,6)" d="M 1123.02 657.767 C 1130.13 658.171 1134.21 658.351 1130.89 666.338 C 1124.43 665.726 1120.15 665.45 1123.02 657.767 z"/>
<path transform="translate(0,0)" fill="rgb(6,5,6)" d="M 1139.48 659.563 C 1140.47 658.588 1141.92 658.239 1143.25 658.652 C 1144.58 659.066 1145.58 660.176 1145.84 661.543 C 1146.11 662.91 1145.6 664.312 1144.53 665.195 C 1142.96 666.48 1140.66 666.304 1139.31 664.795 C 1137.96 663.287 1138.03 660.981 1139.48 659.563 z"/>
<path transform="translate(0,0)" fill="rgb(243,236,224)" d="M 1265.02 533.282 C 1274.17 545.896 1271.56 749.273 1270.69 777.283 L 1249.84 776.961 C 1243.67 727.709 1236.52 678.31 1230.46 628.993 C 1228.38 612.134 1236.36 587.126 1234.28 579.263 L 1232.78 580.358 C 1230.45 588.056 1228.38 606.363 1227.18 615.103 C 1217.84 666.822 1211.16 724.391 1202.67 777.114 L 1174.85 777.193 C 1175.38 714.211 1176.51 651.236 1178.23 588.276 C 1219.13 583.652 1205.36 563.696 1227.81 543.874 C 1233.94 538.461 1251.25 540.398 1263.86 533.887 L 1265.02 533.282 z"/>
<path transform="translate(0,0)" fill="rgb(188,187,185)" d="M 1446.61 702.125 C 1441.7 695.846 1437.4 687.302 1434.99 679.739 C 1429.31 661.751 1431.05 642.242 1439.81 625.539 C 1448.38 609.532 1462.91 597.547 1480.25 592.187 C 1499.93 586.12 1519.08 588.942 1537.13 598.311 C 1537.73 598.594 1537.64 598.593 1538.27 599.088 C 1542.89 602.382 1545.91 604.497 1550.03 608.361 C 1551.35 608.807 1552.64 610.701 1553.39 611.83 C 1566.72 628.552 1573.27 645.206 1570.69 667.049 C 1568.48 685.843 1558.75 702.939 1543.72 714.443 C 1529.35 725.643 1513.32 730.119 1495.22 729.049 C 1493.89 729.822 1492.56 729.151 1491.32 728.478 C 1476.33 725.942 1466.65 720.689 1455.01 711.281 C 1452.77 710.15 1451.97 709.296 1450.63 707.106 L 1447.51 703.273 C 1446.96 702.753 1446.96 702.793 1446.61 702.125 z"/>
<path transform="translate(0,0)" fill="rgb(6,5,6)" d="M 1449.59 702.182 C 1440.2 690.794 1434.74 676.686 1434 661.948 C 1433.02 643.879 1439.39 626.183 1451.67 612.887 C 1464.44 599.288 1482.19 591.458 1500.85 591.192 C 1518.53 590.904 1535.6 597.67 1548.28 609.993 C 1549.56 611.627 1549.8 611.974 1551.48 613.112 C 1563.94 627.5 1570.46 644.598 1568.98 663.782 C 1567.4 682.111 1558.69 699.086 1544.72 711.053 C 1530.99 722.694 1513.15 728.32 1495.22 726.662 C 1478.23 725.032 1461.38 716.439 1450.51 703.223 C 1449.88 702.665 1450.03 702.842 1449.59 702.182 z"/>
<path transform="translate(0,0)" fill="rgb(243,236,224)" d="M 1497.11 594.48 C 1532.57 592.106 1563.29 618.818 1565.87 654.266 C 1568.45 689.715 1541.91 720.59 1506.48 723.37 C 1470.76 726.173 1439.58 699.375 1436.98 663.638 C 1434.38 627.901 1461.35 596.874 1497.11 594.48 z"/>
<path transform="translate(0,0)" fill="rgb(105,103,101)" d="M 1550.03 608.361 C 1551.35 608.807 1552.64 610.701 1553.39 611.83 C 1552.41 612.232 1552.32 612.415 1551.48 613.112 C 1549.8 611.974 1549.56 611.627 1548.28 609.993 L 1550.03 608.361 z"/>
<path transform="translate(0,0)" fill="rgb(63,63,63)" d="M 1450.63 707.106 C 1452.31 708.027 1453.95 709.695 1455.01 711.281 C 1452.77 710.15 1451.97 709.296 1450.63 707.106 z"/>
<path transform="translate(0,0)" fill="rgb(63,63,63)" d="M 1491.32 728.478 C 1493.42 728.353 1493.33 728.291 1495.22 729.049 C 1493.89 729.822 1492.56 729.151 1491.32 728.478 z"/>
<path transform="translate(0,0)" fill="rgb(243,236,224)" d="M 1623.45 426.165 C 1637.48 427.674 1652.49 431.777 1664.05 440.244 C 1682.08 453.455 1704.96 479.434 1709.27 501.9 C 1714.79 530.667 1676.79 533.871 1657.57 536.478 C 1656.73 529.001 1655.44 524.448 1653.51 517.265 C 1664.09 512.094 1674.61 506.814 1685.08 501.425 C 1676.28 493.978 1651.08 469.366 1642.01 468.416 C 1647.11 473.511 1654.55 479.623 1660.11 484.467 L 1661.91 509.45 L 1654.77 513.335 C 1644.32 518.071 1638.02 518.865 1631.84 528.073 C 1620.92 530.984 1610.83 533.119 1599.84 536.428 C 1591.84 533.942 1585.25 532.648 1577 531.532 C 1576.53 515.21 1576.17 498.886 1575.93 482.559 C 1570.37 496.738 1564.95 515.65 1560.31 530.436 C 1554.18 530.858 1537 533.094 1532.37 529.516 C 1530.65 519.168 1529.16 518.841 1520.36 514.23 C 1528.68 512.048 1536.98 509.801 1545.26 507.492 C 1547.83 497.403 1554.47 480.081 1558.27 470.089 C 1567.96 444.658 1579.05 438.448 1602.49 428.567 C 1611.97 434.814 1615.69 433.516 1623.45 426.165 z"/>
<path transform="translate(0,0)" fill="rgb(63,63,63)" d="M 1616.36 569.245 L 1656.18 569.117 C 1657.62 576.955 1658.69 597.234 1659.24 605.795 C 1663 663.808 1659.53 720.047 1652.87 777.644 L 1632 777.473 L 1619.36 777.775 C 1616.44 757.473 1613.09 726.742 1611.66 706.393 C 1612.88 704.886 1614.08 703.368 1615.28 701.841 C 1640.69 669.262 1638.92 626.335 1605.34 600.342 C 1617.08 595.63 1617.13 598.531 1616.6 584.052 C 1616.44 579.447 1616.44 573.932 1616.36 569.245 z"/>
<path transform="translate(0,0)" fill="rgb(243,236,224)" d="M 1266.19 488.86 C 1269.53 490.995 1271.85 498.725 1272.76 502.526 C 1279.33 529.698 1256.39 534.504 1235.98 537.419 C 1217.55 540.052 1215.48 556.666 1207.05 570.141 C 1195.7 590.095 1165.44 588.167 1148.72 576.06 C 1121.21 556.124 1118.3 523.173 1136.61 497.089 C 1142.91 500.34 1156.85 511.403 1162.04 510.856 C 1163.97 508.979 1164.12 508.707 1166.51 507.298 C 1174.04 509.794 1206.08 538.301 1209.52 519.67 C 1212.48 518.82 1212.69 518.816 1215.33 517.323 C 1216.35 513.939 1215.42 514.127 1214.15 509.952 C 1216.74 508.893 1217.16 508.859 1219.08 506.695 L 1218.94 504.476 C 1216.96 501.391 1210.69 500.219 1206.78 499.064 L 1206.09 497.717 C 1216.38 484.509 1238.57 495.274 1237.11 510.981 C 1236.4 518.606 1215.09 525.415 1213.03 527.985 C 1199.1 545.386 1191.86 561.796 1176.73 531.851 C 1174.56 527.578 1170.35 521.223 1167.94 515.407 C 1164.43 517.355 1160.4 520.111 1156.97 522.323 C 1164.35 535.276 1172.7 547.692 1180.21 561.015 C 1182.92 559.206 1191.29 551.145 1191.61 551.129 C 1206.61 550.371 1207.08 536.087 1216.18 529.786 C 1228.96 520.943 1239.34 523.788 1240.25 504.708 C 1248.6 499.26 1257.61 494.012 1266.19 488.86 z"/>
<path transform="translate(0,0)" fill="rgb(243,236,224)" d="M 1432.75 508.008 L 1435.28 506.81 C 1442.58 510.418 1449.51 510.273 1457.2 512.175 C 1471.13 515.624 1485.07 519.488 1498.76 523.782 C 1509.78 527.249 1504.83 532.223 1513.98 535.761 C 1515.3 536.272 1517.24 537.282 1518.65 537.907 C 1497.75 550.767 1502.47 560.747 1521.98 570.892 L 1521.95 588.719 C 1484.78 579.686 1454.52 593.428 1435.7 626.374 C 1434.79 629.249 1434.67 629.703 1433.13 632.257 C 1432.98 632.067 1432.81 631.896 1432.69 631.688 C 1431.33 629.312 1431.46 517.449 1432.75 508.008 z"/>
<path transform="translate(0,0)" fill="rgb(243,236,224)" d="M 1203.29 384.226 L 1204.53 384.342 C 1211.8 390.913 1213.62 390.472 1222.29 388.201 C 1227.88 391.413 1236.44 396.538 1241.16 400.667 C 1244.87 420.096 1248.38 439.563 1251.68 459.065 C 1214.52 434.458 1213.52 468.111 1193.51 479.059 L 1192.5 479.608 C 1187.42 480.581 1182.35 480.922 1177.21 481.378 C 1167.54 476.106 1150.67 462.594 1140.19 455.406 C 1154.58 444.442 1188.58 421.489 1194.34 403.914 C 1196.86 396.214 1190.04 392.548 1191.33 387.534 C 1194.67 385.28 1199.17 384.949 1203.29 384.226 z"/>
<path transform="translate(0,0)" fill="rgb(243,236,224)" d="M 1432.3 684.693 C 1433.24 685.498 1440.92 698.626 1442.62 701.268 C 1459.54 727.656 1494.1 738.025 1523.5 728.835 C 1530.69 726.59 1544.56 717.205 1551.35 721.117 C 1553.75 729.706 1546.7 731.788 1547.18 742.865 C 1542.42 746.926 1536.91 752.486 1532.3 756.885 C 1526.15 762.703 1498.7 790.769 1492.3 790.31 C 1479.9 782.35 1449.96 753.731 1438.18 741.937 C 1437.47 741.223 1438.13 735.005 1436.9 731.267 C 1435.09 730.996 1434.65 730.923 1432.91 730.354 C 1431.33 722.905 1432.21 694.255 1432.3 684.693 z"/>
<path transform="translate(0,0)" fill="rgb(243,236,224)" d="M 1177.87 389.982 C 1181.67 389.301 1185.96 389.623 1188.65 392.686 C 1190.72 395.015 1191.7 398.116 1191.35 401.214 C 1189.58 417.255 1148.78 444.922 1135.1 454.981 C 1144.98 463.015 1168 479.902 1178.49 486.408 C 1173.73 492.892 1166.6 501.105 1161.35 507.475 C 1155.63 509.201 1110.52 475.406 1107.44 466.176 C 1096.82 434.308 1155.35 399.023 1177.87 389.982 z"/>
<path transform="translate(0,0)" fill="rgb(243,236,224)" d="M 1226.02 642.463 C 1227.2 640.791 1226.83 640.065 1228.78 640.892 L 1240.47 729.598 C 1243.57 752.862 1247.05 774.372 1247.58 797.833 L 1207.76 797.922 C 1203 779.71 1207.36 766.769 1210.2 748.478 L 1220.77 679.67 C 1222.43 668.622 1225.22 653.15 1226.02 642.463 z"/>
<path transform="translate(0,0)" fill="rgb(243,236,224)" d="M 1549.75 534.399 C 1562.87 531.828 1598.15 535.634 1608.06 544.099 C 1631.34 563.99 1586.99 572.269 1575.24 573.931 C 1556.09 575.333 1534.26 574.1 1517.23 564.28 C 1512.2 561.647 1504.67 553.384 1510.06 547.746 C 1519.28 538.081 1537.4 535.708 1549.75 534.399 z"/>
<path transform="translate(0,0)" fill="rgb(243,236,224)" d="M 1003.29 647.088 C 1006.76 646.652 1015.15 645.996 1018.15 647.548 C 1017.04 649.488 1013.93 654.847 1013.93 656.743 C 1013.96 670.994 1014.13 686.534 1014.16 700.66 L 1014.3 758.219 C 1014.31 760.687 1014.84 792.363 1015.03 791.779 L 995.815 781.721 L 995.765 700.737 C 995.745 686.765 995.528 672.107 995.969 658.107 C 996.141 652.609 999.275 650.301 1003.29 647.088 z"/>
<path transform="translate(0,0)" fill="rgb(243,236,224)" d="M 1551.82 606.056 L 1580.68 606.168 C 1606 632.488 1609.58 662.374 1590.9 693.79 C 1587.42 697.701 1570.12 696.177 1564.46 696.082 C 1581.98 663.367 1576.22 632.694 1551.82 606.056 z"/>
<path transform="translate(0,0)" fill="rgb(243,236,224)" d="M 1607.54 709.859 C 1610.98 713.922 1613.25 768.833 1616.03 777.126 C 1616.89 779.688 1620.03 780.675 1622.6 781.588 L 1623.7 781.972 L 1624.02 783.726 C 1621.81 786.994 1622.48 787.144 1619.47 788.385 C 1610.08 783.214 1604.4 777.073 1596.57 769.836 C 1586.84 760.582 1576.58 751.346 1566.69 742.221 C 1566.75 738.614 1567.27 734.422 1565.73 731.376 C 1563.56 731.424 1563.27 731.676 1561.42 730.669 C 1561.08 726.629 1560.88 725.555 1561.75 721.636 C 1564.73 720.375 1566.05 721.175 1569.73 721.692 C 1587.65 724.207 1593.94 720.366 1607.54 709.859 z"/>
<path transform="translate(0,0)" fill="rgb(243,236,224)" d="M 1585.25 606.116 L 1607.26 606.016 C 1633.72 632.598 1636.83 664.215 1616.02 695.339 C 1612.62 696.403 1597.49 696.215 1593.03 696.268 C 1611.94 666.247 1610.17 632.05 1585.25 606.116 z"/>
<path transform="translate(0,0)" fill="rgb(243,236,224)" d="M 1227.3 454.244 C 1230.13 454.133 1232.98 454.319 1235.78 454.796 C 1245.9 456.553 1252.08 464.356 1257.55 472.148 C 1247.64 478.48 1237.57 483.268 1228.05 490.461 C 1220.59 486.906 1214.98 488.674 1208.03 491.854 C 1205.74 493.565 1203.43 495.531 1201.2 497.35 C 1196.87 496.08 1181.8 492.239 1180.17 489.558 C 1181.89 480.981 1193.65 484.314 1199.13 479.556 C 1211.72 468.615 1209.17 459.263 1227.3 454.244 z"/>
<path transform="translate(0,0)" fill="rgb(243,236,224)" d="M 1611.84 565.042 L 1612.42 565.583 C 1613.38 569.929 1612.94 587.967 1612.9 593.522 C 1602.56 593.746 1589.35 592.789 1578.8 592.11 C 1564.6 591.195 1537.54 594.785 1525.11 589.531 L 1525.33 572.132 C 1529.25 573.247 1533.22 574.217 1537.21 575.039 C 1561.74 580.162 1590.32 579.11 1611.84 565.042 z"/>
<path transform="translate(0,0)" fill="rgb(243,236,224)" d="M 1710.26 339.622 C 1712.71 339.909 1726.31 343.68 1727.6 342.245 C 1730.18 339.356 1732.88 342.025 1734.83 344.154 C 1750.65 361.471 1749.39 388.913 1748.95 410.818 C 1746.91 413.242 1745.22 407.645 1743.98 405.495 C 1733.26 386.993 1720.61 368.382 1711.92 349.028 C 1712.5 350.316 1711 342.481 1711.01 342.509 L 1710.26 339.622 z"/>
<path transform="translate(0,0)" fill="rgb(243,236,224)" d="M 1422.83 749.772 C 1425.41 752.256 1424.57 790.946 1424.63 797.913 L 1381.26 797.95 C 1376.13 793.402 1382.4 788.104 1385.37 785.289 C 1397.8 773.525 1411.07 762.198 1422.83 749.772 z"/>
<path transform="translate(0,0)" fill="rgb(243,236,224)" d="M 1299.51 467.863 C 1302.88 467.847 1312.68 472.809 1316.68 474.273 C 1309.95 489.701 1307.62 507.749 1289.5 511.598 C 1275.58 506.239 1275.81 499.777 1270.29 486.513 C 1279.88 480.068 1289.62 473.85 1299.51 467.863 z"/>
<path transform="translate(0,0)" fill="rgb(243,236,224)" d="M 1432.99 750.517 C 1441.46 755.737 1466.96 782.577 1476.19 789.864 C 1478.19 791.449 1477.16 793.97 1477.19 797.478 C 1475.87 797.987 1475.5 797.976 1474.04 797.976 L 1432.87 797.83 C 1432.9 782.411 1432.44 765.831 1432.99 750.517 z"/>
<path transform="translate(0,0)" fill="rgb(243,236,224)" d="M 1562.17 750.529 C 1565.64 752.808 1569.53 757.169 1572.76 760.132 C 1583.93 770.354 1594.97 780.705 1606.39 790.64 C 1607.36 791.483 1606.43 795.229 1606.35 796.428 L 1606.28 797.393 C 1601.82 798.605 1569.06 797.755 1562.11 797.753 C 1562.08 782.097 1561.79 766.159 1562.17 750.529 z"/>
<path transform="translate(0,0)" fill="rgb(243,236,224)" d="M 1551.99 750.916 C 1553.99 753.055 1552.96 791.147 1552.95 797.841 L 1510.27 797.879 C 1510.21 797.542 1509.43 792.391 1509.44 792.383 C 1522.11 778.186 1538.04 764.409 1551.99 750.916 z"/>
<path transform="translate(0,0)" fill="rgb(243,236,224)" d="M 951.218 607.923 L 952.054 604.816 L 952.755 605.047 C 953.073 616.566 954.124 706.155 952.073 708.688 C 923.265 673.87 937.808 654.275 948.537 617.046 L 951.218 607.923 z"/>
<path transform="translate(0,0)" fill="rgb(105,103,101)" d="M 951.218 607.923 L 952.054 604.816 L 952.755 605.047 C 953.073 616.566 954.124 706.155 952.073 708.688 C 952.84 699.219 952.301 684.713 952.229 674.919 L 952 618.029 C 952.166 614.099 951.751 611.75 951.218 607.923 z"/>
<path transform="translate(0,0)" fill="rgb(243,236,224)" d="M 1761.31 503.612 C 1762.46 516.096 1761.38 532.804 1761.58 545.758 C 1762.05 576.3 1760.75 608.267 1761.66 638.696 L 1760.94 639.151 L 1760.5 638.849 C 1757.96 633.22 1754.87 620.095 1753.4 613.76 C 1744.64 576.054 1747.37 554.136 1758.04 518.232 C 1759.03 512.837 1759.86 508.889 1761.31 503.612 z"/>
<path transform="translate(0,0)" fill="rgb(243,236,224)" d="M 1629.14 537.207 C 1630.86 536.867 1631.39 536.862 1632.45 538.135 C 1638.89 545.963 1650.56 537.933 1658.63 539.668 C 1659.93 539.946 1660.66 563.173 1660.88 566.066 C 1657.22 566.068 1653.57 566.032 1649.91 565.958 L 1614.41 566.054 C 1617.19 558.506 1621.4 552.266 1614.5 544.972 C 1614.6 545.078 1611.41 542.248 1612.48 541.789 C 1617.29 539.736 1623.91 538.389 1629.14 537.207 z"/>
<path transform="translate(0,0)" fill="rgb(243,236,224)" d="M 1244.63 402.307 C 1260.4 408.254 1273.02 441.588 1281.89 457.193 C 1279.75 458.647 1277.7 459.8 1275.53 461.174 C 1270.21 464.218 1265.36 467.034 1260.16 470.255 C 1259.15 468.659 1258.11 467.08 1257.05 465.52 C 1255.22 462.877 1246.21 410.861 1244.63 402.307 z"/>
<path transform="translate(0,0)" fill="rgb(243,236,224)" d="M 1308.65 444.888 L 1309.54 445.862 C 1308.61 450.985 1308.25 453.716 1307.96 458.907 C 1298.67 464.275 1242.65 501.618 1237.85 500.46 L 1231.44 492.035 C 1237.19 487.573 1253.83 477.876 1260.73 473.866 C 1277.24 464.263 1292.55 455.215 1308.65 444.888 z"/>
<path transform="translate(0,0)" fill="rgb(243,236,224)" d="M 1703.78 794.368 C 1719.83 785.543 1738.11 779.202 1754.48 770.89 C 1755.42 770.408 1761.52 772.194 1761.6 773.383 C 1762.12 781.296 1761.88 789.539 1761.91 797.52 C 1747.43 797.565 1733.25 797.87 1718.73 797.624 C 1715.69 797.718 1699.72 798.136 1698.17 797.044 C 1698.16 796.972 1698.15 796.9 1698.14 796.828 C 1698.38 796.868 1698.63 796.907 1698.87 796.946 L 1699.35 795.594 C 1700.84 795.196 1702.27 794.662 1703.78 794.368 z"/>
<path transform="translate(0,0)" fill="rgb(243,236,224)" d="M 1386.62 391.667 C 1388.83 391.673 1392.16 391.512 1393.62 393.35 C 1404.92 407.539 1399.57 409.686 1385.55 416.85 C 1380.27 419.552 1375.58 422.677 1369.78 424.957 C 1348.55 423.055 1355.72 406.041 1370.96 401.503 C 1373 400.896 1384.53 393.187 1386.62 391.667 z"/>
<path transform="translate(0,0)" fill="rgb(243,236,224)" d="M 955.637 526.02 L 958.222 527.145 C 959.613 529.543 959.04 542.687 959.031 546.256 L 958.965 590.047 C 959.043 638.437 959.338 687.007 959.102 735.403 C 959.087 738.614 959.027 740.46 957.447 743.303 C 954.364 738.542 955.562 676.329 955.558 665.754 C 955.295 619.176 955.321 572.597 955.637 526.02 z"/>
<path transform="translate(0,0)" fill="rgb(243,236,224)" d="M 1764.61 504.243 L 1766.71 505.196 C 1768.45 507.792 1767.34 589.746 1767.32 598.765 C 1767.63 645.41 1767.69 692.057 1767.5 738.704 C 1766.35 738.635 1765.65 738.289 1764.5 737.922 C 1763.8 728.169 1764.21 713.397 1764.22 703.204 L 1764.27 641.175 C 1764.31 597.626 1763.03 546.967 1764.61 504.243 z"/>
<path transform="translate(0,0)" fill="rgb(243,236,224)" d="M 1220.61 341.503 C 1227.9 346.209 1229.01 347.468 1236.92 342.552 C 1239.11 341.189 1243.75 351.752 1250.49 348.924 C 1259.06 345.333 1246.28 359.79 1245.35 361.017 C 1224.92 382.471 1208.22 368.788 1220.61 341.503 z"/>
<path transform="translate(0,0)" fill="rgb(243,236,224)" d="M 1177.79 493.619 C 1187.86 495.449 1198.3 501.076 1208.51 502.988 C 1209.4 503.155 1216.1 504.016 1215.68 505.568 C 1214.72 509.056 1206.91 505.486 1205.16 507.342 C 1204.59 509.788 1215.44 511.6 1212.48 515.433 C 1209.74 516.488 1206.93 515.062 1204.32 514.249 C 1203.21 517.923 1206.19 517.284 1206.23 519.417 C 1205.11 520.854 1201.92 519.391 1201.15 520.593 C 1201.32 521.468 1202.41 521.736 1202.66 522.529 C 1198.16 525.123 1173.5 507.484 1168.44 504.167 C 1171.94 500.002 1173.99 497.596 1177.79 493.619 z"/>
<path transform="translate(0,0)" fill="rgb(243,236,224)" d="M 1604.68 380.134 C 1615.61 379.549 1624.89 409.478 1601.37 411.305 C 1589.21 403.096 1589.24 396.585 1585.77 383.126 C 1595.03 382.594 1595.29 383.496 1604.68 380.134 z"/>
<path transform="translate(0,0)" fill="rgb(243,236,224)" d="M 1014.25 385.369 C 1017.55 387.201 1013.54 389.405 1013.88 392.54 C 1014.12 394.693 1013.36 395.851 1011.99 397.489 C 1002.5 408.835 993.912 421.973 984.461 433.249 C 983.268 426.865 991.59 393.87 995.063 386.972 C 996.48 384.158 999.091 387.777 999.115 387.781 C 1003.39 388.515 1009.71 386.284 1014.25 385.369 z"/>
<path transform="translate(0,0)" fill="rgb(63,63,63)" d="M 1250.23 780.325 C 1258.54 780.397 1269.71 779.001 1276.31 784.533 C 1282.29 789.549 1291.3 790.722 1294.47 797.671 C 1280.96 798.375 1264.72 797.903 1250.93 798.026 C 1250.73 792.126 1250.4 786.209 1250.23 780.325 z"/>
<path transform="translate(0,0)" fill="rgb(243,236,224)" d="M 947.16 774.91 C 948.266 774.743 957.339 776.233 956.99 777.395 C 951.599 795.345 926.337 797.777 911.207 797.716 C 907.177 797.776 903.146 797.801 899.115 797.793 C 914.903 790.05 931.516 782.686 947.16 774.91 z"/>
<path transform="translate(0,0)" fill="rgb(243,236,224)" d="M 1238.26 324.047 C 1248.63 323.237 1256.38 327.805 1256.93 338.521 C 1257.25 344.776 1247.92 349.311 1242.84 342.319 C 1232.44 331.358 1236.08 345.685 1227.9 342.459 C 1214.16 337.045 1234.44 325.779 1238.26 324.047 z"/>
<path transform="translate(0,0)" fill="rgb(188,187,185)" d="M 1427.04 510.373 C 1427.25 510.528 1427.49 510.651 1427.67 510.838 C 1427.7 510.864 1428.94 512.437 1428.97 512.531 C 1429.99 515.49 1430.19 714.224 1429.03 731.472 L 1427.94 730.63 C 1426.18 727.251 1427.04 529.771 1427.04 510.373 z"/>
<path transform="translate(0,0)" fill="rgb(243,236,224)" d="M 955.109 744.494 C 957.069 744.74 958.451 744.939 960.282 745.678 C 964.436 747.354 969.888 765.119 969.429 768.495 C 967.562 770.466 963.918 771.666 961.35 772.675 C 953.024 772.703 953.033 773.291 945.903 768.181 C 948 758.375 948.278 752.143 955.109 744.494 z"/>
<path transform="translate(0,0)" fill="rgb(63,63,63)" d="M 1630.13 780.768 C 1637.2 780.591 1644.27 780.522 1651.34 780.562 C 1651.98 784.026 1652.51 787.508 1652.96 791.002 L 1653.41 794.521 C 1653.94 798.625 1651.58 797.691 1648.25 797.641 C 1640.93 797.622 1633.36 797.4 1626.05 797.762 C 1616.41 798.24 1628.29 783.884 1630.13 780.768 z"/>
<path transform="translate(0,0)" fill="rgb(63,63,63)" d="M 1178.88 780.986 L 1200.44 780.438 C 1201.5 785.635 1202.86 790.836 1203.73 796.029 C 1204.15 798.534 1198.66 797.661 1197.25 797.658 L 1169.53 797.671 C 1172.36 791.867 1175.81 786.653 1178.88 780.986 z"/>
<path transform="translate(0,0)" fill="rgb(243,236,224)" d="M 1763.28 741.494 C 1770.61 741.903 1773.21 745.961 1774.21 752.977 C 1775.84 764.295 1781.17 765.542 1770.35 769.27 C 1758.17 769.589 1752.49 769.788 1755.79 757.983 C 1758.51 748.251 1755.66 749.27 1763.28 741.494 z"/>
<path transform="translate(0,0)" fill="rgb(243,236,224)" d="M 1771.14 774.664 C 1779.77 779.429 1796.15 788.798 1804 794.429 C 1805.19 794.926 1806.66 795.381 1807.24 796.588 C 1807.23 796.821 1807.15 797.183 1806.94 797.206 C 1799.99 797.946 1783.02 797.686 1776.41 797.486 C 1769.17 797.989 1771.38 796.007 1771.1 789.018 C 1770.91 784.352 1771.13 779.365 1771.14 774.664 z"/>
<path transform="translate(0,0)" fill="rgb(243,236,224)" d="M 946.011 794.528 C 950.535 791.486 951.581 790.987 955.304 787.24 C 959.626 782.89 959.192 775.675 963 776.782 C 965.194 777.419 966.439 777.543 967.759 779.612 C 973.223 788.174 977.846 791.684 985.963 797.045 C 982.672 797.616 943.454 798.253 940.223 797.376 L 940.452 797.503 L 940.215 797.365 C 940.615 795.923 944.789 794.853 946.011 794.528 z"/>
<path transform="translate(0,0)" fill="rgb(243,236,224)" d="M 1659.35 308.652 C 1663.44 307.375 1667.9 308.436 1670.98 311.418 C 1674.06 314.4 1675.26 318.826 1674.12 322.955 C 1672.97 327.085 1669.66 330.258 1665.48 331.228 C 1659.35 332.652 1653.19 328.971 1651.54 322.895 C 1649.89 316.82 1653.34 310.527 1659.35 308.652 z"/>
<path transform="translate(0,0)" fill="rgb(243,236,224)" d="M 1058.18 354.948 C 1061.99 353.155 1066.47 353.546 1069.91 355.97 C 1073.35 358.394 1075.22 362.479 1074.81 366.668 C 1074.41 370.857 1071.78 374.504 1067.94 376.22 C 1062.08 378.836 1055.2 376.246 1052.53 370.413 C 1049.85 364.58 1052.38 357.681 1058.18 354.948 z"/>
<path transform="translate(0,0)" fill="rgb(243,236,224)" d="M 1562.45 699.46 C 1570.73 699.436 1579 699.352 1587.28 699.206 C 1581.03 705.66 1576.83 709.737 1569.77 715.322 C 1562.11 715.378 1555.11 715.712 1547.32 715.64 C 1555.72 707.923 1556.03 706.089 1562.45 699.46 z"/>
<path transform="translate(0,0)" fill="rgb(243,236,224)" d="M 1591.04 699.441 C 1598.8 699.364 1606.39 699.13 1614.18 699.111 C 1607.67 706.011 1602.76 709.616 1594.94 714.842 C 1586.11 715.633 1582.85 715.768 1574 715.659 C 1580.38 710.222 1585.29 705.691 1591.04 699.441 z"/>
<path transform="translate(0,0)" fill="rgb(243,236,224)" d="M 1677.73 318.236 C 1688.66 321.556 1699.54 325.09 1710.43 328.51 C 1714.04 329.643 1710.38 335.375 1709.44 337.274 C 1706.84 336.446 1704.18 335.769 1701.49 335.248 C 1692.63 333.474 1683.64 330.686 1674.99 328.071 C 1675.87 324.478 1676.77 322.826 1677.73 318.236 z"/>
<path transform="translate(0,0)" fill="rgb(243,236,224)" d="M 1047.26 364.045 C 1050.51 364.697 1048.11 369.932 1050.74 372.628 C 1050.92 372.806 1050.97 374.317 1050.65 374.417 C 1040.46 377.582 1029.68 379.515 1019.37 382.324 C 1016.35 383.375 1015.86 374.596 1016.18 374.458 C 1026.11 370.244 1036.92 367.879 1047.26 364.045 z"/>
<path transform="translate(0,0)" fill="rgb(243,236,224)" d="M 1329.59 434.251 C 1330.26 434.107 1330.25 433.992 1330.69 434.203 C 1330.76 434.324 1327.46 452.642 1327.65 452.422 C 1320.87 460.313 1316.45 467.427 1310.54 455.543 C 1310.99 453.229 1312.83 440.306 1316.02 440.267 C 1316.83 440.258 1316.89 441.972 1317.94 442.735 C 1319.75 441.897 1318.86 437.727 1321.45 438.007 C 1322.06 439.193 1322.03 440.887 1323.13 441.784 C 1326.39 441.923 1322.74 436.002 1326.01 434.868 C 1327.92 435.229 1327.54 439.21 1329.59 434.251 z"/>
<path transform="translate(0,0)" fill="rgb(243,236,224)" d="M 1706.55 351.813 L 1708.58 352.393 C 1712.38 356.846 1727.09 382.56 1729.85 387.869 C 1735.14 398.054 1762.2 439.321 1762.08 446.721 C 1757.52 441.777 1706.96 354.831 1706.55 351.813 z"/>
<path transform="translate(0,0)" fill="rgb(243,236,224)" d="M 1067.89 635.281 C 1077.19 634.733 1089.72 634.83 1097.29 641.232 C 1097.34 641.6 1097.38 641.967 1097.42 642.335 C 1096.01 643.776 1086.22 643.169 1083.91 643.166 C 1080.38 643.171 1052.99 643.76 1052.39 642.548 C 1052.72 638.515 1064.55 635.925 1067.89 635.281 z"/>
<path transform="translate(0,0)" fill="rgb(243,236,224)" d="M 1615.94 408.062 C 1617.42 409.57 1619.69 420.013 1619.82 422.528 C 1620.14 429.113 1612.37 429.618 1608.62 429.609 C 1603.71 425.275 1604.85 425.604 1602.86 419.552 C 1600.34 411.873 1607.08 415.824 1615.94 408.062 z"/>
<path transform="translate(0,0)" fill="rgb(243,236,224)" d="M 1650.68 518.731 C 1651.67 521.866 1652.71 525.225 1653.07 528.49 C 1653.34 531.008 1655.42 536.261 1651.47 536.902 C 1650.46 537.091 1649.79 536.519 1648.98 535.991 C 1646.88 534.612 1645.47 537.74 1643.58 537.684 C 1642.69 537.658 1643.85 534.762 1641.99 534.85 C 1639.97 534.946 1639.62 538.416 1637.63 537.538 C 1636.74 537.041 1638.05 534.591 1638.26 534.013 C 1638.5 533.358 1638.56 532.671 1638.61 531.923 C 1637.25 531.209 1636.37 530.693 1634.92 530.171 L 1635.54 529.021 C 1638.78 522.879 1644.68 521.219 1650.68 518.731 z"/>
<path transform="translate(0,0)" fill="rgb(243,236,224)" d="M 1015.17 398.574 C 1015.4 398.659 1017.59 399.315 1017.14 399.938 C 1001.89 420.914 980.31 447.503 964.943 467.499 C 960.568 466.405 966.75 460.57 968.376 458.625 C 984.616 439.197 999.105 418.108 1015.17 398.574 z"/>
<path transform="translate(0,0)" fill="rgb(243,236,224)" d="M 1595.88 368.007 C 1605.77 368.653 1612.17 371.775 1615.61 381.995 C 1615.79 382.534 1615.86 383.02 1615.55 383.502 L 1615.38 383.524 C 1612.58 380.622 1612.48 380.16 1609.1 377.38 C 1601.52 376.379 1595.02 381.322 1588.97 379.857 C 1579.61 377.596 1593.31 369.246 1595.88 368.007 z"/>
<path transform="translate(0,0)" fill="rgb(243,236,224)" d="M 1353.65 417.978 C 1354.33 418.752 1358.18 423.703 1357.48 424.541 C 1353.19 429.631 1341.87 435.309 1336.31 439.114 C 1331.28 442.455 1334.06 432.059 1334.28 429.906 C 1340.63 426.052 1347.47 422.002 1353.65 417.978 z"/>
<path transform="translate(0,0)" fill="rgb(243,236,224)" d="M 1513.55 516.595 C 1519.21 517.186 1522.61 518.464 1527.17 521.807 C 1530.53 524.873 1526.35 525.932 1524.86 527.425 C 1521.89 530.4 1526.03 531.815 1521.75 533.54 C 1510.74 533.73 1503.94 525.131 1513.55 516.595 z"/>
<path transform="translate(0,0)" fill="rgb(243,236,224)" d="M 1163.73 520.306 C 1166.57 521.217 1184.96 548.868 1186.3 552 C 1185.85 553.227 1184.74 554.239 1183.99 555.293 L 1183.54 555.938 C 1177.75 554.939 1166.5 530.01 1161.95 524.591 C 1161.37 523.891 1163.37 520.909 1163.73 520.306 z"/>
<path transform="translate(0,0)" fill="rgb(243,236,224)" d="M 1537.5 595.073 C 1546.92 595.011 1556.46 595.314 1565.94 595.314 C 1569.68 597.94 1572.46 600.041 1576.07 602.826 C 1567.01 602.931 1557.94 602.961 1548.87 602.916 C 1544.91 599.916 1541.65 597.762 1537.5 595.073 z"/>
<path transform="translate(0,0)" fill="rgb(243,236,224)" d="M 1750.79 766.019 C 1750.87 766.095 1752.56 767.499 1751.82 767.92 C 1732.77 778.839 1711.05 786.527 1691.35 796.496 C 1689.15 792.694 1692.16 792.533 1696.15 790.693 C 1714.29 782.321 1732.61 774.308 1750.79 766.019 z"/>
<path transform="translate(0,0)" fill="rgb(243,236,224)" d="M 1214.72 367.691 C 1223.44 376.12 1229.31 374.445 1219.36 386.29 C 1200.8 388.135 1209.03 377.443 1214.72 367.691 z"/>
<path transform="translate(0,0)" fill="rgb(243,236,224)" d="M 958.498 482.601 C 969.893 488.697 968.105 496.232 957.957 502.107 C 945.079 496.6 951.937 490.011 958.498 482.601 z"/>
<path transform="translate(0,0)" fill="rgb(243,236,224)" d="M 1795.63 500.349 C 1800.55 501.544 1801.73 503.459 1803.98 508.465 C 1806.57 514.21 1814.37 521.41 1811.96 527.352 L 1811.48 528.633 C 1808.05 527.586 1806.11 526.581 1804.82 523.025 C 1801.94 515.063 1791.91 508.621 1795.63 500.349 z"/>
<path transform="translate(0,0)" fill="rgb(243,236,224)" d="M 1418.83 745.77 C 1418.98 746.476 1419.53 748.513 1419.05 749.01 C 1412.03 756.384 1382.21 785.578 1375.83 788.696 C 1375.76 788.303 1375.38 786.621 1375.53 786.482 C 1385.44 777.371 1409.6 752.883 1418.83 745.77 z"/>
<path transform="translate(0,0)" fill="rgb(243,236,224)" d="M 1438.6 751.312 C 1436.63 748.53 1436.01 749.261 1437.19 746.233 L 1438.14 746.876 C 1439.04 747.449 1439.63 747.98 1440.23 748.864 C 1450.77 758.558 1461.39 768.164 1472.09 777.681 C 1473.65 778.565 1474.07 778.798 1475.04 780.363 C 1477.59 782.782 1484.8 787.144 1478.94 787.937 C 1476.18 786.322 1476.11 786.061 1474.01 783.597 L 1468.13 778.287 C 1465.98 777.294 1457.86 769.332 1456.58 767.44 L 1454.69 765.7 C 1451.44 763.986 1450.14 762.398 1447.91 759.413 L 1441.09 753.363 C 1439.66 752.762 1439.65 752.562 1438.6 751.312 z"/>
<path transform="translate(0,0)" fill="rgb(105,103,101)" d="M 1456.58 767.44 C 1458.92 768.592 1466.85 776.365 1468.13 778.287 C 1465.98 777.294 1457.86 769.332 1456.58 767.44 z"/>
<path transform="translate(0,0)" fill="rgb(105,103,101)" d="M 1447.91 759.413 C 1450.08 760.939 1452.99 763.668 1454.69 765.7 C 1451.44 763.986 1450.14 762.398 1447.91 759.413 z"/>
<path transform="translate(0,0)" fill="rgb(63,63,63)" d="M 1474.01 783.597 C 1476.2 785.266 1477.06 785.953 1478.94 787.937 C 1476.18 786.322 1476.11 786.061 1474.01 783.597 z"/>
<path transform="translate(0,0)" fill="rgb(105,103,101)" d="M 1472.09 777.681 C 1473.65 778.565 1474.07 778.798 1475.04 780.363 C 1473.31 779.496 1473.04 779.297 1472.09 777.681 z"/>
<path transform="translate(0,0)" fill="rgb(243,236,224)" d="M 918.634 517.383 C 928.172 519.214 921.814 524.17 918.377 528.327 C 914.624 532.866 911.019 537.839 907.372 542.481 C 893.749 544.472 916.418 520.138 918.634 517.383 z"/>
<path transform="translate(0,0)" fill="rgb(243,236,224)" d="M 1547.79 746.85 C 1548.07 747.262 1549.14 748.676 1548.83 749.024 C 1540.03 758.78 1514.92 781.83 1506.79 789.363 C 1506.35 788.804 1504.81 787.003 1505.26 786.575 C 1515.09 777.27 1539.06 754.46 1547.79 746.85 z"/>
<path transform="translate(0,0)" fill="rgb(243,236,224)" d="M 1763.82 459.693 C 1766.58 461.655 1769.13 466.553 1770.88 469.576 C 1774.13 475.202 1771.47 476.276 1767.29 478.465 C 1754.99 474.25 1754.49 468.254 1763.82 459.693 z"/>
<path transform="translate(0,0)" fill="rgb(243,236,224)" d="M 944.199 491.893 C 946.695 495.436 948.51 498.743 951.023 502.295 C 951.05 507.158 951.416 515.555 950.787 519.979 C 950.948 525.246 950.647 523.129 951.958 527.52 C 953.387 532.304 952.755 544.312 952.593 549.472 C 951.126 541.581 949.475 532.997 948.368 525.104 C 946.585 514.087 945.195 503.009 944.199 491.893 z"/>
<path transform="translate(0,0)" fill="rgb(243,236,224)" d="M 1574.97 757.618 C 1573.46 756.263 1565.52 750.109 1565.41 746.896 C 1565.39 746.34 1566.15 746.301 1566.57 746.682 C 1581.32 759.965 1596.18 773.41 1610.67 786.905 C 1610.9 787.122 1610.43 787.944 1609.72 787.739 C 1607.37 787.063 1604.93 784.734 1603.02 783.25 C 1601.58 782.561 1601.64 782.784 1601.06 781.563 C 1599.08 779.769 1597.08 778.002 1595.05 776.264 C 1593.04 775.293 1591.07 773.582 1589.88 771.689 C 1587.57 769.584 1585.3 767.448 1583.06 765.281 C 1580.89 764.24 1576.09 759.521 1574.97 757.618 z"/>
<path transform="translate(0,0)" fill="rgb(105,103,101)" d="M 1574.97 757.618 C 1576.91 758.631 1581.87 763.475 1583.06 765.281 C 1580.89 764.24 1576.09 759.521 1574.97 757.618 z"/>
<path transform="translate(0,0)" fill="rgb(105,103,101)" d="M 1589.88 771.689 C 1592.06 772.609 1593.63 774.369 1595.05 776.264 C 1593.04 775.293 1591.07 773.582 1589.88 771.689 z"/>
<path transform="translate(0,0)" fill="rgb(243,236,224)" d="M 941.591 770.801 C 941.945 770.795 945.619 771.301 944.027 772.244 C 930.101 780.491 909.643 788.564 895.571 796.195 C 895.656 796.207 891.663 795.425 893.209 794.509 C 908.293 785.581 925.758 778.727 941.591 770.801 z"/>
<path transform="translate(0,0)" fill="rgb(243,236,224)" d="M 1663.64 487.579 C 1668.93 491.406 1673.6 496.203 1678.64 500.355 C 1679.67 501.203 1675.74 502.936 1675.63 502.992 C 1671.96 504.664 1668.45 506.453 1664.83 508.11 C 1664.21 500.885 1663.92 494.865 1663.64 487.579 z"/>
<path transform="translate(0,0)" fill="rgb(243,236,224)" d="M 1571.33 595.072 C 1577.81 595.04 1584.29 595.08 1590.77 595.193 L 1603.01 602.819 C 1595.93 603.097 1588.53 602.904 1581.4 602.957 C 1578.05 600.271 1574.79 597.624 1571.33 595.072 z"/>
<path transform="translate(0,0)" fill="rgb(243,236,224)" d="M 1421.62 733.956 C 1436.48 733.983 1434.22 731.631 1434.12 746.492 C 1420.28 746.25 1421.67 748.327 1421.62 733.956 z"/>
<path transform="translate(0,0)" fill="rgb(243,236,224)" d="M 969.711 772.107 C 974.279 773.554 1006.14 790.985 1012.18 794.47 C 1012.57 794.692 1012.25 796.158 1012.21 796.461 C 1007.58 794.558 969.912 776.717 968.063 774.431 C 968.109 773.542 969.116 772.744 969.711 772.107 z"/>
<path transform="translate(0,0)" fill="rgb(243,236,224)" d="M 962.211 726.613 C 970.743 733.37 971.891 744.458 970.843 754.445 C 969.897 753.69 962.209 741.941 962.166 741.565 C 961.889 739.143 962.164 729.695 962.211 726.613 z"/>
<path transform="translate(0,0)" fill="rgb(243,236,224)" d="M 1570.12 509.859 C 1570.3 509.137 1570.94 505.261 1571.94 504.544 C 1572.09 504.503 1572.24 504.463 1572.4 504.422 C 1573.57 505.703 1573.18 512.769 1573.19 514.032 C 1573.19 517.584 1573.65 530.385 1572.65 530.511 C 1561.57 531.922 1564 529.94 1566.36 522.085 C 1568.03 516.518 1569.07 513.133 1570.12 509.859 z"/>
<path transform="translate(0,0)" fill="rgb(243,236,224)" d="M 1556.48 749.348 C 1556.89 749.644 1558.7 750.839 1558.71 751.157 C 1558.97 759.963 1559.64 790.471 1558.48 797.638 C 1558.07 797.353 1556.25 796.15 1556.24 795.843 C 1555.73 786.291 1555.42 756.758 1556.48 749.348 z"/>
<path transform="translate(0,0)" fill="rgb(243,236,224)" d="M 1550.76 734.75 C 1564.86 734.664 1563.32 732.249 1563.14 746.303 C 1548.2 746.71 1550.72 747.93 1550.76 734.75 z"/>
<path transform="translate(0,0)" fill="rgb(243,236,224)" d="M 1773.22 771.275 C 1776.19 769.828 1777.41 770.179 1780.25 772.433 C 1784.46 775.779 1811.17 790.267 1813.07 793.498 C 1813.07 794.338 1812.35 795.487 1811.51 795.01 C 1799.97 788.429 1788.69 780.847 1777.15 774.177 C 1774.98 773.308 1774.9 772.953 1773.22 771.275 z"/>
<path transform="translate(0,0)" fill="rgb(105,103,101)" d="M 1773.22 771.275 C 1774.71 772.255 1775.92 772.886 1777.15 774.177 C 1774.98 773.308 1774.9 772.953 1773.22 771.275 z"/>
<path transform="translate(0,0)" fill="rgb(243,236,224)" d="M 1762.84 480.366 C 1763.61 480.493 1769.3 480.943 1769.32 481.567 C 1769.57 488.031 1769.25 495.278 1769.24 501.784 L 1767.97 501.856 C 1767.18 501.893 1763.62 502.055 1763.45 501.291 C 1762.5 497.078 1762.94 484.612 1762.84 480.366 z"/>
<path transform="translate(0,0)" fill="rgb(243,236,224)" d="M 1764.96 446.477 C 1768.77 448.507 1781.24 469.293 1779.2 474.829 C 1772.61 467.986 1767.54 458.37 1763.01 450.043 C 1762.71 449.493 1764.76 446.78 1764.96 446.477 z"/>
<path transform="translate(0,0)" fill="rgb(243,236,224)" d="M 1491.89 450.506 C 1495.32 449.92 1498.59 452.15 1499.3 455.552 C 1500.01 458.954 1497.89 462.305 1494.52 463.132 C 1492.22 463.694 1489.81 462.96 1488.22 461.218 C 1486.63 459.476 1486.11 457.005 1486.88 454.773 C 1487.64 452.541 1489.57 450.905 1491.89 450.506 z"/>
<path transform="translate(0,0)" fill="rgb(243,236,224)" d="M 973.233 781.629 C 977.269 782.606 1000.4 794.372 1004.74 796.869 C 989.968 797.363 982.555 793.411 973.233 781.629 z"/>
<path transform="translate(0,0)" fill="rgb(243,236,224)" d="M 958.587 469.509 C 959.018 469.611 962.727 470.317 962.053 471.618 C 958.331 478.798 951.455 486.15 946.391 492.457 C 945.455 492.729 945.224 492.794 944.456 492.254 C 942.751 486.634 954.789 474.274 958.587 469.509 z"/>
<path transform="translate(0,0)" fill="rgb(243,236,224)" d="M 954.125 503.305 C 963.132 505.316 959.689 503.808 960.325 514.346 C 960.525 517.668 960.406 521.29 960.191 524.611 C 959.399 524.444 958.602 524.293 957.804 524.157 C 957.093 524.042 954.972 523.711 954.723 523.199 C 953.446 520.566 954.074 505.946 954.125 503.305 z"/>
<path transform="translate(0,0)" fill="rgb(243,236,224)" d="M 1427.33 749.364 C 1427.77 749.555 1429.52 750.266 1429.54 750.459 C 1430.23 758.49 1430.26 790.986 1429.58 797.179 C 1429.41 797.072 1428.07 796.236 1428.05 796.142 C 1427.09 787.621 1427.36 756.461 1427.33 749.364 z"/>
<path transform="translate(0,0)" fill="rgb(243,236,224)" d="M 1695.4 338.473 C 1702.05 339.403 1709.88 340.007 1708.45 348.714 C 1697.94 351.824 1695.49 350 1695.4 338.473 z"/>
<path transform="translate(0,0)" fill="rgb(146,143,140)" d="M 1485.76 463.147 C 1485.61 465.63 1441.11 494.743 1435.98 497.215 C 1435.68 493.903 1479.86 466.15 1485.76 463.147 z"/>
<path transform="translate(0,0)" fill="rgb(188,187,185)" d="M 1453.92 506.24 C 1459.93 506.854 1467.35 509.649 1473.39 511.401 C 1484.06 514.498 1494.92 517.3 1505.53 520.435 C 1505.74 520.5 1505.5 523.201 1505.55 522.251 C 1497.94 520.525 1456.57 510.162 1453.92 506.24 z"/>
<path transform="translate(0,0)" fill="rgb(243,236,224)" d="M 1023.67 385.484 C 1032.44 388.114 1028.27 394.601 1023.18 398.782 C 1012.07 395.569 1016.42 390.132 1023.67 385.484 z"/>
<path transform="translate(0,0)" fill="rgb(146,143,140)" d="M 1419.29 507.908 C 1419.66 508.092 1420.03 508.275 1420.41 508.458 C 1419.91 509.792 1378.26 537.149 1373.51 540.16 C 1371.08 539.674 1372.55 538.429 1373.95 537.477 C 1388.88 527.355 1404.23 517.809 1419.29 507.908 z"/>
<path transform="translate(0,0)" fill="rgb(243,236,224)" d="M 884.511 793.968 C 887.557 793.33 890.543 795.284 891.176 798.331 C 891.808 801.378 889.848 804.36 886.8 804.987 C 883.76 805.612 880.788 803.658 880.157 800.62 C 879.526 797.581 881.474 794.605 884.511 793.968 z"/>
<path transform="translate(0,0)" fill="rgb(243,236,224)" d="M 1425.59 497.156 C 1428.49 496.039 1431.75 497.501 1432.84 500.411 C 1433.93 503.321 1432.44 506.562 1429.52 507.627 C 1426.64 508.68 1423.45 507.212 1422.37 504.338 C 1421.29 501.465 1422.73 498.259 1425.59 497.156 z"/>
<path transform="translate(0,0)" fill="rgb(243,236,224)" d="M 1679.84 793.773 C 1689.04 794.04 1691.09 795.51 1685.69 803.715 C 1676.43 804.761 1674.52 800.961 1679.84 793.773 z"/>
<path transform="translate(0,0)" fill="rgb(243,236,224)" d="M 1816.01 795.708 C 1817.52 794.304 1819.7 793.879 1821.63 794.612 C 1823.56 795.345 1824.91 797.11 1825.11 799.164 C 1825.31 801.219 1824.32 803.209 1822.57 804.298 C 1820.19 805.774 1817.09 805.204 1815.39 802.982 C 1813.69 800.759 1813.96 797.611 1816.01 795.708 z"/>
<path transform="translate(0,0)" fill="rgb(243,236,224)" d="M 1436.08 500.109 C 1443.34 499.724 1452.15 498.05 1452.77 507.037 C 1444.23 509.089 1440.71 507.048 1436.08 500.109 z"/>
<path transform="translate(0,0)" fill="rgb(243,236,224)" d="M 1014.88 794.419 C 1022.94 794.693 1026.97 795.851 1025.03 804.596 C 1023.8 804.768 1022.21 805.06 1020.98 805.011 C 1019.16 804.937 1017.45 804.115 1016.26 802.738 C 1014.1 800.259 1014.64 797.475 1014.88 794.419 z"/>
<path transform="translate(0,0)" fill="rgb(243,236,224)" d="M 1765.03 772.191 C 1765.46 772.361 1767.56 773.108 1767.63 773.402 C 1768.65 777.685 1767.99 794.08 1767.74 797.692 C 1767.34 797.539 1765.4 796.912 1765.33 796.622 C 1764.31 792.379 1764.9 775.956 1765.03 772.191 z"/>
<path transform="translate(0,0)" fill="rgb(243,236,224)" d="M 1780.36 475.524 C 1785.36 477.886 1793.58 494.29 1795.98 499.616 C 1790.21 497.558 1781.95 481.35 1780.36 475.524 z"/>
<path transform="translate(0,0)" fill="rgb(243,236,224)" d="M 1752.85 439.709 C 1755.91 442.46 1762.57 453.567 1761.3 458.12 C 1760.96 458.208 1758.29 459.151 1757.91 458.483 C 1754.92 453.173 1753.19 445.778 1752.85 439.709 z"/>
<path transform="translate(0,0)" fill="rgb(188,187,185)" d="M 1638.61 531.923 C 1635.12 532.888 1606.45 541.014 1605.03 538.49 C 1605.58 537.745 1607.11 537.27 1607.97 537.088 L 1613.98 535.747 C 1621.27 534.066 1627.79 532.42 1634.92 530.171 C 1636.37 530.693 1637.25 531.209 1638.61 531.923 z"/>
<path transform="translate(0,0)" fill="rgb(243,236,224)" d="M 940.678 493.746 C 941.537 495.894 942.065 496.19 940.56 498.063 L 925.827 516.347 C 925.479 516.059 924.227 515.121 924.368 514.852 C 926.521 510.762 938.082 496.641 940.678 493.746 z"/>
<path transform="translate(0,0)" fill="rgb(63,63,63)" d="M 1371.27 789.519 C 1377.65 790.17 1379.04 794.124 1374.53 798.678 C 1365.66 797.043 1363.53 796.109 1371.27 789.519 z"/>
<path transform="translate(0,0)" fill="rgb(243,236,224)" d="M 1308.53 461.495 C 1310.6 462.374 1313.49 464.889 1315.1 464.911 C 1319.57 464.972 1318.7 468.309 1315.78 470.945 C 1306.26 466.604 1301.14 467.717 1308.53 461.495 z"/>
<path transform="translate(0,0)" fill="rgb(243,236,224)" d="M 1011.56 377.196 C 1014.33 377.268 1014.9 380.814 1014.03 381.453 C 1012.07 382.904 1006.09 384.109 1003.46 384.801 C 1001.54 384.569 1000.19 383.119 1000.87 381.495 C 1001.58 379.779 1009.66 377.877 1011.56 377.196 z"/>
<path transform="translate(0,0)" fill="rgb(63,63,63)" d="M 1612.56 789.419 C 1618.35 790.674 1621.02 792.875 1617.6 798.39 C 1610.63 796.746 1607.04 796.371 1612.56 789.419 z"/>
<path transform="translate(0,0)" fill="rgb(243,236,224)" d="M 1714.18 332.119 C 1719.5 333.761 1726.95 333.68 1726.54 339.564 C 1719.88 338.605 1712 339.241 1714.18 332.119 z"/>
<path transform="translate(0,0)" fill="rgb(63,63,63)" d="M 1482.43 789.444 C 1488.1 790.615 1491.2 792.212 1488.85 798.197 C 1481.98 797.448 1478.9 797.12 1482.43 789.444 z"/>
<path transform="translate(0,0)" fill="rgb(63,63,63)" d="M 1499.71 791.178 C 1501.5 789.855 1504.03 790.246 1505.33 792.048 C 1506.64 793.85 1506.22 796.371 1504.41 797.661 C 1502.62 798.934 1500.14 798.527 1498.85 796.748 C 1497.56 794.969 1497.94 792.483 1499.71 791.178 z"/>
<path transform="translate(0,0)" fill="rgb(243,236,224)" d="M 1328.32 420.759 C 1333.71 425.769 1329.73 428.224 1325.7 431.513 C 1321.13 431.281 1327.05 422.459 1328.32 420.759 z"/>
<path transform="translate(0,0)" fill="rgb(243,236,224)" d="M 953.416 468.851 C 954.216 469.382 953.987 469.159 954.278 469.524 C 954.341 470.298 947.252 479.54 946.162 481.102 C 945.919 481.023 945.676 480.944 945.433 480.865 C 943.94 477.418 950.84 470.679 953.416 468.851 z"/>
<path transform="translate(0,0)" fill="rgb(243,236,224)" d="M 1556.33 719.654 C 1560.17 721.772 1558.14 725.935 1558 730.756 C 1553.53 731.182 1555.84 722.653 1556.33 719.654 z"/>
<path transform="translate(0,0)" fill="rgb(146,143,140)" d="M 1760.04 732.932 C 1760.39 732.513 1760.84 731.725 1761.45 731.649 C 1762.9 732.72 1761.54 739.456 1761.17 741.138 C 1756.95 740.055 1759.08 736.711 1760.04 732.932 z"/>
<path transform="translate(0,0)" fill="rgb(243,236,224)" d="M 1760.04 732.932 C 1760.77 736.304 1760.91 737.662 1761.17 741.138 C 1756.95 740.055 1759.08 736.711 1760.04 732.932 z"/>
<path transform="translate(0,0)" fill="rgb(243,236,224)" d="M 1784.9 453.546 C 1785.94 453.221 1787.06 453.673 1787.59 454.628 C 1788.11 455.582 1787.89 456.774 1787.06 457.478 C 1786.35 458.077 1785.35 458.189 1784.53 457.762 C 1783.71 457.335 1783.22 456.454 1783.3 455.53 C 1783.38 454.606 1784.01 453.823 1784.9 453.546 z"/>
<path transform="translate(0,0)" fill="rgb(188,187,185)" d="M 1226.02 642.463 L 1226.09 641.617 C 1226.19 640.512 1226.81 635.526 1227.57 634.894 C 1228.78 636.406 1228.77 639.002 1228.78 640.892 C 1226.83 640.065 1227.2 640.791 1226.02 642.463 z"/>
<path transform="translate(0,0)" fill="rgb(188,187,185)" d="M 1527.4 532.009 C 1529.05 531.171 1529.14 531.257 1529.76 533.022 C 1529.31 533.286 1528.47 533.939 1527.88 533.881 C 1527.7 533.863 1527.59 533.801 1527.48 533.659 C 1527.19 533.278 1527.38 532.319 1527.4 532.009 z"/>
<path transform="translate(0,0)" fill="rgb(6,5,6)" d="M 1368.01 396.062 C 1366.95 395.549 1366.31 394.441 1366.4 393.265 C 1366.48 392.09 1367.28 391.086 1368.4 390.732 C 1369.53 390.378 1370.75 390.746 1371.5 391.66 C 1372.24 392.574 1372.35 393.849 1371.77 394.877 L 1373.21 396.623 C 1372.69 396.996 1372.18 397.37 1371.66 397.743 L 1368.01 396.062 z"/>
<path transform="translate(0,0)" fill="rgb(105,103,101)" d="M 1368.01 396.062 C 1369.38 396.724 1371.03 396.204 1371.77 394.877 L 1373.21 396.623 C 1372.69 396.996 1372.18 397.37 1371.66 397.743 L 1368.01 396.062 z"/>
<path transform="translate(0,0)" fill="rgb(6,5,6)" d="M 1391.84 421.08 C 1393.01 421.545 1393.75 422.695 1393.7 423.948 C 1393.65 425.201 1392.81 426.286 1391.61 426.653 C 1390.41 427.021 1389.11 426.591 1388.37 425.582 C 1387.62 424.573 1387.59 423.204 1388.3 422.166 C 1389.08 421.018 1390.55 420.566 1391.84 421.08 z"/>
<path transform="translate(0,0)" fill="rgb(6,5,6)" d="M 1377.52 385.499 C 1378.4 384.807 1379.6 384.672 1380.61 385.151 C 1381.63 385.631 1382.28 386.642 1382.3 387.762 C 1382.33 388.882 1381.71 389.918 1380.72 390.438 C 1379.37 391.145 1377.7 390.706 1376.87 389.425 C 1376.04 388.144 1376.32 386.443 1377.52 385.499 z"/>
<path transform="translate(0,0)" fill="rgb(6,5,6)" d="M 1400.62 414.693 C 1406.09 419.645 1398.37 424.965 1396.55 417.948 C 1397.92 416.838 1399.23 415.762 1400.62 414.693 z"/>
<path transform="translate(0,0)" fill="rgb(6,5,6)" d="M 1359.27 396.448 C 1360.69 396.374 1361.95 397.338 1362.25 398.725 C 1362.55 400.111 1361.8 401.512 1360.48 402.033 C 1359.42 402.454 1358.2 402.205 1357.39 401.399 C 1356.57 400.593 1356.31 399.381 1356.71 398.31 C 1357.12 397.238 1358.12 396.508 1359.27 396.448 z"/>
<path transform="translate(0,0)" fill="rgb(6,5,6)" d="M 1378.56 428.313 C 1378.77 427.16 1379.65 426.246 1380.79 425.996 C 1381.94 425.746 1383.12 426.209 1383.79 427.17 C 1384.55 428.249 1384.48 429.699 1383.63 430.704 C 1382.78 431.709 1381.37 432.019 1380.18 431.458 C 1378.99 430.898 1378.32 429.607 1378.56 428.313 z"/>
<path transform="translate(0,0)" fill="rgb(146,143,140)" d="M 1386.49 419.516 C 1387.44 419.078 1388.09 418.761 1389.09 418.422 C 1389.59 420.275 1390.17 420.233 1391.84 421.08 C 1390.55 420.566 1389.08 421.018 1388.3 422.166 L 1386.49 419.516 z"/>
</svg>